<svg version="1.1" xmlns="http://www.w3.org/2000/svg" viewBox="0 0 1092 318" width="1092" height="318"><defs><clipPath id="source-alpha-boundary-clip" clipPathUnits="userSpaceOnUse"><path d="M202 17H209V18H202ZM191 18H219V19H191ZM186 19H224V20H186ZM182 20H229V21H182ZM178 21H232V22H178ZM175 22H235V23H175ZM172 23H238V24H172ZM169 24H240V25H169ZM167 25H243V26H167ZM165 26H245V27H165ZM163 27H247V28H163ZM161 28H248V29H161ZM159 29H250V30H159ZM158 30H252V31H158ZM156 31H253V32H156ZM155 32H255V33H155ZM153 33H256V34H153ZM152 34H258V35H152ZM151 35H259V36H151ZM149 36H260V37H149ZM148 37H261V38H148ZM147 38H262V39H147ZM146 39H263V40H146ZM145 40H264V41H145ZM144 41H265V42H144ZM143 42H267V43H143ZM142 43H268V44H142ZM141 44H269V45H141ZM140 45H270V46H140ZM139 46H271V47H139ZM138 47H272V48H138ZM137 48H272V49H137ZM136 49H273V50H136ZM136 50H274V51H136ZM135 51H275V52H135ZM134 52H275V53H134ZM134 53H276V54H134ZM133 54H277V55H133ZM132 55H278V57H132ZM131 57H279V58H131ZM130 58H279V59H130ZM116 59H124V60H116ZM130 59H280V60H130ZM107 60H281V61H107ZM102 61H281V62H102ZM98 62H282V63H98ZM95 63H282V64H95ZM93 64H283V65H93ZM90 65H283V66H90ZM88 66H284V67H88ZM86 67H284V68H86ZM84 68H285V69H84ZM83 69H285V70H83ZM81 70H286V71H81ZM79 71H286V72H79ZM78 72H287V73H78ZM77 73H287V74H77ZM75 74H287V75H75ZM74 75H288V76H74ZM73 76H288V77H73ZM299 76H317V77H299ZM72 77H289V78H72ZM290 77H323V78H290ZM71 78H327V79H71ZM70 79H331V80H70ZM658 79H668V80H658ZM789 79H797V80H789ZM828 79H839V80H828ZM69 80H334V81H69ZM421 80H437V81H421ZM461 80H476V81H461ZM696 80H710V81H696ZM733 80H746V81H733ZM827 80H839V81H827ZM68 81H336V82H68ZM460 81H476V82H460ZM733 81H747V82H733ZM826 81H838V82H826ZM696 81H711V83H696ZM67 82H339V83H67ZM825 82H837V83H825ZM67 83H341V84H67ZM825 83H836V84H825ZM421 81H438V85H421ZM697 83H711V85H697ZM66 84H343V85H66ZM824 84H835V85H824ZM459 82H476V86H459ZM732 82H746V86H732ZM65 85H345V86H65ZM823 85H835V86H823ZM697 85H712V87H697ZM64 86H347V87H64ZM732 86H745V87H732ZM823 86H834V87H823ZM64 87H348V88H64ZM822 87H833V88H822ZM421 85H439V89H421ZM731 87H745V89H731ZM63 88H350V89H63ZM822 88H832V89H822ZM458 86H476V90H458ZM698 87H712V90H698ZM62 89H351V90H62ZM821 89H831V90H821ZM62 90H353V91H62ZM698 90H713V91H698ZM820 90H830V92H820ZM61 91H354V92H61ZM421 89H440V93H421ZM731 89H744V93H731ZM61 92H355V93H61ZM819 92H829V93H819ZM457 90H476V94H457ZM699 91H713V94H699ZM60 93H356V94H60ZM819 93H828V94H819ZM57 94H357V95H57ZM699 94H714V95H699ZM818 94H827V95H818ZM51 95H359V96H51ZM820 95H821V96H820ZM822 95H826V96H822ZM421 93H441V97H421ZM456 94H476V97H456ZM47 96H360V97H47ZM730 93H743V98H730ZM700 95H714V98H700ZM44 97H361V98H44ZM41 98H362V99H41ZM421 97H442V100H421ZM701 98H714V100H701ZM39 99H363V100H39ZM455 97H476V101H455ZM37 100H364V101H37ZM729 98H742V102H729ZM701 100H715V102H701ZM35 101H365V102H35ZM548 101H551V102H548ZM633 101H635V102H633ZM33 102H365V103H33ZM496 102H508V103H496ZM544 102H556V103H544ZM627 102H638V103H627ZM729 102H741V103H729ZM755 102H767V103H755ZM817 102H831V103H817ZM895 102H904V103H895ZM910 102H916V103H910ZM918 102H920V103H918ZM985 102H996V103H985ZM421 100H443V104H421ZM702 102H715V104H702ZM31 103H367V104H31ZM492 103H511V104H492ZM542 103H558V104H542ZM624 103H641V104H624ZM753 103H770V104H753ZM814 103H833V104H814ZM892 103H906V104H892ZM983 103H1000V104H983ZM454 101H476V105H454ZM30 104H367V105H30ZM490 104H512V105H490ZM541 104H559V105H541ZM622 104H643V105H622ZM751 104H771V105H751ZM811 104H835V105H811ZM891 104H907V105H891ZM981 104H1001V105H981ZM728 103H741V106H728ZM909 103H921V106H909ZM28 105H368V106H28ZM453 105H476V106H453ZM488 105H513V106H488ZM540 105H560V106H540ZM621 105H644V106H621ZM749 105H773V106H749ZM809 105H836V106H809ZM890 105H908V106H890ZM980 105H1002V106H980ZM526 103H538V107H526ZM702 104H716V107H702ZM27 106H369V107H27ZM487 106H514V107H487ZM539 106H561V107H539ZM620 106H645V107H620ZM748 106H774V107H748ZM808 106H837V107H808ZM889 106H921V107H889ZM978 106H1004V107H978ZM433 104H444V108H433ZM728 106H740V108H728ZM25 107H370V108H25ZM485 107H515V108H485ZM526 107H561V108H526ZM619 107H646V108H619ZM747 107H774V108H747ZM888 107H921V108H888ZM977 107H1004V108H977ZM1013 103H1045V109H1013ZM453 106H463V109H453ZM807 107H838V109H807ZM24 108H370V109H24ZM485 108H516V109H485ZM618 108H646V109H618ZM747 108H775V109H747ZM977 108H1005V109H977ZM847 103H879V110H847ZM703 107H716V110H703ZM727 108H740V110H727ZM887 108H921V110H887ZM23 109H371V110H23ZM452 109H463V110H452ZM486 109H516V110H486ZM617 109H647V110H617ZM746 109H776V110H746ZM976 109H1005V110H976ZM526 108H562V111H526ZM807 109H839V111H807ZM22 110H371V111H22ZM486 110H517V111H486ZM617 110H648V111H617ZM703 110H717V111H703ZM745 110H776V111H745ZM886 110H921V111H886ZM975 110H1006V111H975ZM434 108H445V112H434ZM1013 109H1044V112H1013ZM847 110H878V112H847ZM21 111H372V112H21ZM487 111H517V112H487ZM616 111H630V112H616ZM635 111H648V112H635ZM745 111H759V112H745ZM763 111H777V112H763ZM807 111H840V112H807ZM885 111H921V112H885ZM975 111H989V112H975ZM992 111H1006V112H992ZM452 110H462V113H452ZM727 110H739V113H727ZM526 111H563V113H526ZM20 112H373V113H20ZM435 112H445V113H435ZM487 112H497V113H487ZM502 112H518V113H502ZM616 112H629V113H616ZM636 112H648V113H636ZM744 112H757V113H744ZM765 112H777V113H765ZM808 112H818V113H808ZM824 112H840V113H824ZM848 112H849V113H848ZM860 112H861V113H860ZM885 112H899V113H885ZM904 112H921V113H904ZM974 112H987V113H974ZM994 112H1007V113H994ZM1030 112H1043V113H1030ZM864 112H877V114H864ZM19 113H373V114H19ZM487 113H493V114H487ZM504 113H518V114H504ZM526 113H542V114H526ZM726 113H739V114H726ZM765 113H778V114H765ZM808 113H814V114H808ZM884 113H898V114H884ZM905 113H921V114H905ZM974 113H986V114H974ZM704 111H717V115H704ZM435 113H446V115H435ZM549 113H563V115H549ZM615 113H628V115H615ZM744 113H756V115H744ZM826 113H840V115H826ZM995 113H1007V115H995ZM1029 113H1042V115H1029ZM18 114H374V115H18ZM488 114H491V115H488ZM526 114H541V115H526ZM809 114H812V115H809ZM863 114H876V115H863ZM906 114H921V115H906ZM973 114H986V115H973ZM451 113H461V116H451ZM637 113H649V116H637ZM884 114H897V116H884ZM17 115H374V116H17ZM488 115H490V116H488ZM615 115H627V116H615ZM809 115H810V116H809ZM862 115H876V116H862ZM766 114H778V117H766ZM436 115H446V117H436ZM526 115H540V117H526ZM827 115H840V117H827ZM973 115H985V117H973ZM1028 115H1041V117H1028ZM451 116H460V117H451ZM614 116H627V117H614ZM862 116H875V117H862ZM883 116H897V117H883ZM726 114H738V118H726ZM743 115H755V118H743ZM907 115H921V118H907ZM16 116H375V118H16ZM972 117H985V118H972ZM1027 117H1040V118H1027ZM505 114H518V119H505ZM705 115H718V119H705ZM996 115H1008V119H996ZM436 117H447V119H436ZM767 117H778V119H767ZM861 117H874V119H861ZM15 118H376V119H15ZM1026 118H1040V119H1026ZM450 117H460V120H450ZM614 117H626V120H614ZM883 117H896V120H883ZM14 119H376V120H14ZM436 119H448V120H436ZM706 119H718V120H706ZM860 119H874V120H860ZM828 117H840V121H828ZM506 119H518V121H506ZM1026 119H1039V121H1026ZM450 120H459V121H450ZM613 120H626V121H613ZM860 120H873V121H860ZM725 118H737V122H725ZM997 119H1008V122H997ZM13 120H377V122H13ZM882 120H896V122H882ZM505 121H518V122H505ZM825 121H840V122H825ZM638 116H650V123H638ZM742 118H754V123H742ZM972 118H984V123H972ZM767 119H779V123H767ZM706 120H719V123H706ZM613 121H625V123H613ZM859 121H872V123H859ZM1025 121H1038V123H1025ZM12 122H377V123H12ZM498 122H518V123H498ZM725 122H736V123H725ZM819 122H840V123H819ZM997 122H1009V123H997ZM437 120H448V124H437ZM449 121H459V124H449ZM495 123H518V124H495ZM742 123H779V124H742ZM816 123H840V124H816ZM1024 123H1037V124H1024ZM11 123H378V125H11ZM707 123H719V125H707ZM858 123H871V125H858ZM438 124H448V125H438ZM449 124H458V125H449ZM492 124H518V125H492ZM813 124H840V125H813ZM1023 124H1037V125H1023ZM10 125H378V126H10ZM490 125H518V126H490ZM812 125H840V126H812ZM1023 125H1036V126H1023ZM613 123H650V127H613ZM724 123H736V127H724ZM971 123H1009V127H971ZM438 125H458V127H438ZM857 125H870V127H857ZM10 126H379V127H10ZM489 126H518V127H489ZM810 126H840V127H810ZM1022 126H1036V127H1022ZM707 125H720V128H707ZM439 127H458V128H439ZM488 127H518V128H488ZM613 127H651V128H613ZM809 127H840V128H809ZM1022 127H1035V128H1022ZM9 127H379V129H9ZM724 127H735V129H724ZM856 127H869V129H856ZM487 128H518V129H487ZM708 128H720V129H708ZM808 128H840V129H808ZM1021 128H1034V130H1021ZM8 129H379V130H8ZM486 129H518V130H486ZM723 129H735V130H723ZM807 129H840V130H807ZM855 129H868V130H855ZM741 124H779V131H741ZM971 127H1008V131H971ZM439 128H457V131H439ZM613 128H650V131H613ZM485 130H501V131H485ZM807 130H823V131H807ZM854 130H868V131H854ZM708 129H721V132H708ZM8 130H380V132H8ZM1020 130H1033V132H1020ZM484 131H498V132H484ZM613 131H626V132H613ZM755 131H756V132H755ZM758 131H761V132H758ZM776 131H778V132H776ZM806 131H820V132H806ZM854 131H867V132H854ZM987 131H988V132H987ZM1006 131H1007V132H1006ZM506 130H518V133H506ZM484 132H497V133H484ZM613 132H625V133H613ZM805 132H819V133H805ZM853 132H867V133H853ZM723 130H734V134H723ZM971 131H984V134H971ZM1019 132H1032V134H1019ZM484 133H496V134H484ZM805 133H818V134H805ZM853 133H866V134H853ZM440 131H456V135H440ZM7 132H380V135H7ZM709 132H721V135H709ZM722 134H734V135H722ZM1018 134H1031V135H1018ZM613 133H626V136H613ZM805 134H817V136H805ZM852 134H865V136H852ZM972 134H984V136H972ZM709 135H733V136H709ZM1018 135H1030V136H1018ZM882 122H895V137H882ZM742 131H754V137H742ZM483 134H495V137H483ZM804 136H817V137H804ZM1017 136H1030V137H1017ZM571 103H583V138H571ZM908 118H921V138H908ZM6 135H381V138H6ZM441 135H455V138H441ZM614 136H626V138H614ZM851 136H864V138H851ZM1017 137H1029V138H1017ZM710 136H733V139H710ZM483 137H494V139H483ZM742 137H755V139H742ZM442 138H455V139H442ZM1016 138H1029V139H1016ZM594 103H607V140H594ZM953 103H966V140H953ZM828 130H840V140H828ZM972 136H985V140H972ZM614 138H627V140H614ZM850 138H863V140H850ZM710 139H732V140H710ZM743 139H755V140H743ZM1016 139H1028V140H1016ZM804 137H816V141H804ZM883 137H896V141H883ZM482 139H494V141H482ZM614 140H628V141H614ZM849 140H862V141H849ZM1015 140H1028V141H1015ZM784 80H797V142H784ZM929 103H942V142H929ZM505 133H518V142H505ZM571 138H584V142H571ZM907 138H921V142H907ZM442 139H454V142H442ZM593 140H607V142H593ZM743 140H756V142H743ZM827 140H840V142H827ZM952 140H966V142H952ZM973 140H986V142H973ZM615 141H628V142H615ZM848 141H862V142H848ZM883 141H897V142H883ZM5 138H381V143H5ZM482 141H495V143H482ZM804 141H817V143H804ZM1014 141H1027V143H1014ZM443 142H454V143H443ZM504 142H518V143H504ZM571 142H585V143H571ZM592 142H607V143H592ZM615 142H629V143H615ZM645 142H647V143H645ZM743 142H757V143H743ZM774 142H776V143H774ZM826 142H840V143H826ZM848 142H861V143H848ZM884 142H897V143H884ZM906 142H921V143H906ZM951 142H966V143H951ZM973 142H987V143H973ZM1004 142H1006V143H1004ZM656 80H669V144H656ZM711 140H732V144H711ZM784 142H798V144H784ZM929 142H943V144H929ZM483 143H496V144H483ZM503 143H518V144H503ZM571 143H586V144H571ZM591 143H607V144H591ZM615 143H630V144H615ZM643 143H648V144H643ZM744 143H758V144H744ZM772 143H777V144H772ZM804 143H818V144H804ZM825 143H840V144H825ZM847 143H860V144H847ZM878 143H879V144H878ZM884 143H898V144H884ZM905 143H921V144H905ZM950 143H966V144H950ZM974 143H989V144H974ZM1001 143H1006V144H1001ZM1013 143H1026V144H1013ZM483 144H497V145H483ZM501 144H518V145H501ZM616 144H632V145H616ZM640 144H648V145H640ZM656 144H670V145H656ZM744 144H761V145H744ZM769 144H777V145H769ZM784 144H799V145H784ZM804 144H819V145H804ZM823 144H840V145H823ZM847 144H879V145H847ZM884 144H901V145H884ZM902 144H921V145H902ZM974 144H991V145H974ZM998 144H1006V145H998ZM1013 144H1045V145H1013ZM443 143H453V146H443ZM929 144H966V146H929ZM616 145H648V146H616ZM656 145H673V146H656ZM784 145H802V146H784ZM571 144H607V147H571ZM483 145H518V147H483ZM745 145H777V147H745ZM846 145H879V147H846ZM975 145H1006V147H975ZM1012 145H1045V147H1012ZM445 146H452V147H445ZM617 146H648V147H617ZM712 144H731V148H712ZM805 145H840V148H805ZM885 145H921V148H885ZM746 147H777V148H746ZM976 147H1007V148H976ZM656 146H674V149H656ZM930 146H966V149H930ZM484 147H518V149H484ZM572 147H607V149H572ZM618 147H649V149H618ZM806 148H840V149H806ZM886 148H921V149H886ZM977 148H1007V149H977ZM785 146H802V150H785ZM747 148H777V150H747ZM485 149H518V150H485ZM596 149H607V150H596ZM619 149H649V150H619ZM806 149H828V150H806ZM887 149H921V150H887ZM421 104H432V151H421ZM573 149H594V151H573ZM657 149H674V151H657ZM829 149H840V151H829ZM931 149H953V151H931ZM978 149H1007V151H978ZM486 150H518V151H486ZM595 150H607V151H595ZM620 150H648V151H620ZM748 150H777V151H748ZM807 150H827V151H807ZM887 150H907V151H887ZM713 148H730V152H713ZM786 150H803V152H786ZM420 151H432V152H420ZM486 151H504V152H486ZM507 151H519V152H507ZM574 151H593V152H574ZM622 151H646V152H622ZM658 151H674V152H658ZM750 151H775V152H750ZM808 151H826V152H808ZM888 151H906V152H888ZM932 151H952V152H932ZM980 151H1005V152H980ZM464 106H476V153H464ZM550 115H563V153H550ZM526 117H539V153H526ZM845 147H879V153H845ZM1011 147H1045V153H1011ZM954 149H966V153H954ZM596 151H608V153H596ZM829 151H841V153H829ZM421 152H432V153H421ZM488 152H503V153H488ZM507 152H518V153H507ZM575 152H591V153H575ZM624 152H644V153H624ZM659 152H674V153H659ZM714 152H729V153H714ZM751 152H774V153H751ZM787 152H802V153H787ZM809 152H825V153H809ZM890 152H905V153H890ZM933 152H950V153H933ZM982 152H1003V153H982ZM489 153H501V154H489ZM515 153H516V154H515ZM527 153H528V154H527ZM529 153H530V154H529ZM531 153H532V154H531ZM537 153H538V154H537ZM577 153H589V154H577ZM600 153H604V154H600ZM626 153H642V154H626ZM661 153H673V154H661ZM714 153H717V154H714ZM718 153H724V154H718ZM728 153H729V154H728ZM754 153H771V154H754ZM789 153H802V154H789ZM811 153H823V154H811ZM830 153H836V154H830ZM837 153H840V154H837ZM846 153H860V154H846ZM863 153H869V154H863ZM872 153H876V154H872ZM891 153H903V154H891ZM935 153H949V154H935ZM955 153H964V154H955ZM984 153H1000V154H984ZM1016 153H1017V154H1016ZM1018 153H1023V154H1018ZM1024 153H1036V154H1024ZM1043 153H1044V154H1043ZM4 143H381V155H4ZM493 154H498V155H493ZM580 154H587V155H580ZM631 154H638V155H631ZM664 154H669V155H664ZM757 154H767V155H757ZM792 154H796V155H792ZM814 154H820V155H814ZM894 154H900V155H894ZM937 154H946V155H937ZM988 154H996V155H988ZM4 155H380V160H4ZM5 160H380V161H5ZM5 161H379V165H5ZM6 165H378V167H6ZM6 167H377V168H6ZM7 168H377V170H7ZM7 170H376V171H7ZM8 171H376V172H8ZM908 150H921V173H908ZM8 172H375V174H8ZM908 173H920V174H908ZM9 174H374V176H9ZM10 176H373V178H10ZM11 178H372V179H11ZM11 179H371V180H11ZM12 180H371V181H12ZM13 181H370V182H13ZM13 182H369V183H13ZM14 183H369V184H14ZM15 184H368V185H15ZM15 185H367V186H15ZM16 186H366V187H16ZM17 187H365V188H17ZM18 188H364V189H18ZM19 189H363V190H19ZM19 190H362V191H19ZM20 191H361V192H20ZM21 192H360V193H21ZM22 193H359V194H22ZM23 194H358V195H23ZM25 195H356V196H25ZM26 196H355V197H26ZM27 197H353V198H27ZM29 198H352V199H29ZM30 199H350V200H30ZM32 200H349V201H32ZM34 201H347V202H34ZM558 201H559V202H558ZM628 201H629V202H628ZM667 201H669V202H667ZM777 201H778V202H777ZM787 201H788V202H787ZM800 201H802V202H800ZM822 201H823V202H822ZM840 201H842V202H840ZM869 201H870V202H869ZM883 201H884V202H883ZM905 201H908V202H905ZM916 201H918V202H916ZM932 201H936V202H932ZM964 201H965V202H964ZM35 202H345V203H35ZM492 202H503V203H492ZM520 202H524V203H520ZM533 202H548V203H533ZM557 202H561V203H557ZM623 202H633V203H623ZM663 202H671V203H663ZM707 202H719V203H707ZM786 202H791V203H786ZM810 202H814V203H810ZM836 202H846V203H836ZM868 202H872V203H868ZM881 202H885V203H881ZM930 202H939V203H930ZM950 202H954V203H950ZM683 202H687V204H683ZM854 202H859V204H854ZM38 203H343V204H38ZM492 203H505V204H492ZM621 203H634V204H621ZM661 203H673V204H661ZM707 203H721V204H707ZM809 203H815V204H809ZM835 203H847V204H835ZM929 203H940V204H929ZM950 203H955V204H950ZM821 202H825V205H821ZM895 202H910V205H895ZM519 203H525V205H519ZM533 203H549V205H533ZM786 203H792V205H786ZM880 203H886V205H880ZM40 204H340V205H40ZM492 204H506V205H492ZM620 204H634V205H620ZM660 204H674V205H660ZM708 204H722V205H708ZM810 204H815V205H810ZM834 204H848V205H834ZM928 204H941V205H928ZM963 202H966V206H963ZM556 203H562V206H556ZM867 203H871V206H867ZM855 204H859V206H855ZM950 204H956V206H950ZM43 205H337V206H43ZM492 205H496V206H492ZM500 205H507V206H500ZM518 205H525V206H518ZM534 205H536V206H534ZM538 205H543V206H538ZM619 205H625V206H619ZM630 205H634V206H630ZM659 205H665V206H659ZM668 205H674V206H668ZM716 205H723V206H716ZM822 205H825V206H822ZM833 205H839V206H833ZM843 205H849V206H843ZM879 205H886V206H879ZM900 205H905V206H900ZM927 205H932V206H927ZM936 205H942V206H936ZM750 200H751V207H750ZM799 202H802V207H799ZM786 205H793V207H786ZM810 205H816V207H810ZM47 206H333V207H47ZM492 206H495V207H492ZM503 206H508V207H503ZM518 206H526V207H518ZM556 206H563V207H556ZM619 206H623V207H619ZM631 206H633V207H631ZM659 206H664V207H659ZM670 206H675V207H670ZM718 206H723V207H718ZM821 206H825V207H821ZM833 206H837V207H833ZM844 206H849V207H844ZM879 206H887V207H879ZM901 206H904V207H901ZM926 206H931V207H926ZM937 206H942V207H937ZM950 206H957V207H950ZM962 206H966V207H962ZM684 204H687V208H684ZM51 207H328V208H51ZM492 207H496V208H492ZM504 207H508V208H504ZM555 207H563V208H555ZM618 207H623V208H618ZM658 207H663V208H658ZM671 207H675V208H671ZM719 207H724V208H719ZM799 207H803V208H799ZM810 207H817V208H810ZM845 207H850V208H845ZM879 207H882V208H879ZM883 207H887V208H883ZM926 207H930V208H926ZM938 207H943V208H938ZM856 206H860V209H856ZM866 206H870V209H866ZM522 207H526V209H522ZM786 207H794V209H786ZM950 207H958V209H950ZM963 207H966V209H963ZM504 208H509V209H504ZM555 208H558V209H555ZM671 208H676V209H671ZM683 208H687V209H683ZM810 208H818V209H810ZM925 208H930V209H925ZM517 207H521V210H517ZM720 208H724V210H720ZM799 208H802V210H799ZM684 209H687V210H684ZM791 209H795V210H791ZM814 209H818V210H814ZM950 209H953V210H950ZM955 209H959V210H955ZM962 209H966V210H962ZM152 208H158V211H152ZM560 208H564V211H560ZM618 208H622V211H618ZM658 208H662V211H658ZM846 208H850V211H846ZM878 208H882V211H878ZM884 208H888V211H884ZM939 208H943V211H939ZM523 209H527V211H523ZM720 210H725V211H720ZM791 210H796V211H791ZM814 210H819V211H814ZM955 210H960V211H955ZM554 209H558V212H554ZM857 209H861V212H857ZM865 209H869V212H865ZM683 210H687V212H683ZM963 210H966V212H963ZM524 211H527V212H524ZM792 211H796V212H792ZM815 211H819V212H815ZM847 211H851V212H847ZM956 211H960V212H956ZM516 210H520V213H516ZM561 211H565V213H561ZM617 211H621V213H617ZM658 211H661V213H658ZM721 211H725V213H721ZM877 211H881V213H877ZM885 211H889V213H885ZM940 211H943V213H940ZM524 212H528V213H524ZM553 212H557V213H553ZM816 212H820V213H816ZM846 212H851V213H846ZM956 212H961V213H956ZM152 211H159V214H152ZM793 212H797V214H793ZM962 212H966V214H962ZM516 213H528V214H516ZM553 213H565V214H553ZM618 213H621V214H618ZM720 213H725V214H720ZM816 213H821V214H816ZM877 213H889V214H877ZM957 213H961V214H957ZM592 200H593V215H592ZM822 207H825V215H822ZM492 208H495V215H492ZM505 209H509V215H505ZM672 209H676V215H672ZM925 209H929V215H925ZM799 210H803V215H799ZM684 212H687V215H684ZM858 212H862V215H858ZM864 212H868V215H864ZM152 214H158V215H152ZM794 214H798V215H794ZM817 214H821V215H817ZM958 214H962V215H958ZM963 214H966V215H963ZM696 202H700V216H696ZM832 207H836V216H832ZM658 213H662V216H658ZM846 213H850V216H846ZM939 213H943V216H939ZM515 214H529V216H515ZM552 214H566V216H552ZM618 214H622V216H618ZM720 214H724V216H720ZM876 214H890V216H876ZM152 215H159V216H152ZM671 215H676V216H671ZM794 215H803V216H794ZM958 215H966V216H958ZM492 215H496V217H492ZM504 215H508V217H504ZM591 215H593V217H591ZM818 215H825V217H818ZM859 215H867V217H859ZM925 215H930V217H925ZM514 216H529V217H514ZM552 216H567V217H552ZM618 216H623V217H618ZM632 216H633V217H632ZM658 216H663V217H658ZM671 216H675V217H671ZM719 216H724V217H719ZM832 216H837V217H832ZM845 216H850V217H845ZM876 216H891V217H876ZM938 216H943V217H938ZM959 216H966V217H959ZM641 202H644V218H641ZM708 205H711V218H708ZM749 207H751V218H749ZM684 215H688V218H684ZM695 216H699V218H695ZM795 216H803V218H795ZM492 217H495V218H492ZM502 217H507V218H502ZM619 217H624V218H619ZM631 217H634V218H631ZM659 217H664V218H659ZM670 217H675V218H670ZM718 217H723V218H718ZM833 217H838V218H833ZM844 217H849V218H844ZM859 217H866V218H859ZM926 217H931V218H926ZM937 217H942V218H937ZM514 217H518V219H514ZM551 217H555V219H551ZM563 217H567V219H563ZM819 217H825V219H819ZM875 217H879V219H875ZM887 217H891V219H887ZM960 217H966V219H960ZM492 218H496V219H492ZM498 218H507V219H498ZM619 218H626V219H619ZM628 218H634V219H628ZM659 218H666V219H659ZM667 218H674V219H667ZM684 218H692V219H684ZM693 218H699V219H693ZM708 218H712V219H708ZM714 218H723V219H714ZM796 218H803V219H796ZM833 218H841V219H833ZM842 218H848V219H842ZM927 218H942V219H927ZM526 217H530V220H526ZM641 218H653V220H641ZM492 219H506V220H492ZM563 219H568V220H563ZM620 219H634V220H620ZM660 219H674V220H660ZM685 219H698V220H685ZM708 219H722V220H708ZM820 219H825V220H820ZM834 219H848V220H834ZM874 219H879V220H874ZM887 219H892V220H887ZM928 219H941V220H928ZM539 206H542V221H539ZM860 218H866V221H860ZM513 219H517V221H513ZM550 219H555V221H550ZM797 219H803V221H797ZM961 219H966V221H961ZM492 220H505V221H492ZM564 220H568V221H564ZM621 220H634V221H621ZM640 220H654V221H640ZM661 220H672V221H661ZM686 220H697V221H686ZM708 220H720V221H708ZM835 220H847V221H835ZM888 220H892V221H888ZM929 220H940V221H929ZM775 202H779V222H775ZM915 202H919V222H915ZM900 207H904V222H900ZM786 209H790V222H786ZM810 209H813V222H810ZM950 210H954V222H950ZM527 220H531V222H527ZM821 220H825V222H821ZM874 220H878V222H874ZM492 221H502V222H492ZM513 221H516V222H513ZM539 221H543V222H539ZM550 221H554V222H550ZM564 221H569V222H564ZM623 221H632V222H623ZM641 221H653V222H641ZM663 221H671V222H663ZM687 221H695V222H687ZM708 221H719V222H708ZM798 221H803V222H798ZM837 221H845V222H837ZM861 221H865V222H861ZM888 221H893V222H888ZM931 221H938V222H931ZM962 221H966V222H962ZM152 216H158V223H152ZM550 222H551V223H550ZM862 222H864V223H862ZM891 222H892V223H891ZM136 208H142V226H136ZM592 217H593V226H592ZM750 218H751V226H750ZM247 208H253V228H247ZM247 228H254V229H247ZM136 226H143V230H136ZM245 229H255V230H245ZM152 223H159V231H152ZM135 230H145V231H135ZM245 230H256V231H245ZM134 231H146V232H134ZM231 208H237V233H231ZM244 231H257V233H244ZM133 232H147V233H133ZM232 233H236V234H232ZM243 233H257V234H243ZM183 208H189V235H183ZM133 233H148V235H133ZM183 235H190V236H183ZM132 235H148V237H132ZM152 231H158V238H152ZM243 234H258V239H243ZM183 236H191V239H183ZM132 237H149V240H132ZM152 238H159V240H152ZM182 239H191V241H182ZM244 239H257V241H244ZM132 240H148V241H132ZM245 241H256V242H245ZM133 241H148V243H133ZM245 242H255V243H245ZM183 241H191V244H183ZM133 243H147V244H133ZM247 243H254V244H247ZM135 244H147V245H135ZM184 244H190V245H184ZM250 244H251V245H250ZM136 245H145V246H136ZM186 245H189V246H186ZM152 240H158V247H152ZM139 246H143V247H139ZM152 247H159V249H152ZM152 249H158V250H152ZM214 208H220V253H214ZM214 253H221V254H214ZM214 254H222V255H214ZM152 250H159V256H152ZM198 208H204V257H198ZM152 256H158V258H152ZM197 257H205V258H197ZM213 255H222V259H213ZM152 258H159V259H152ZM195 258H206V259H195ZM195 259H207V260H195ZM214 259H222V260H214ZM152 259H158V261H152ZM214 260H221V262H214ZM153 261H158V262H153ZM216 262H219V263H216ZM194 260H208V269H194ZM195 269H207V270H195ZM196 270H206V271H196ZM197 271H205V272H197ZM168 208H174V273H168ZM199 272H204V273H199ZM168 273H175V274H168ZM167 274H177V275H167ZM166 275H178V276H166ZM165 276H179V277H165ZM165 277H180V278H165ZM164 278H181V285H164ZM164 285H180V287H164ZM165 287H179V288H165ZM166 288H178V289H166ZM167 289H177V290H167ZM170 290H175V291H170Z" /></clipPath></defs><g data-alpha-boundary-clip="true" clip-path="url(#source-alpha-boundary-clip)">
<path d="M0 0c360 0 721 0 1092 0 0 105 0 210 0 318-360 0-721 0-1092 0 0-105 0-210 0-318Z" fill="none" transform="translate(0,0)"/>
<path data-fill-layer-id="vtracer-fill-1-d0f5fc" d="M0 0c2 0 4 0 6 0 0 0 0 0 2 0 3 0 5 0 8 0 0 1 0 1 0 2 0 0 0 0 4 0 15 2 30 8 41 18 0 0 0 0 2 1 6 4 10 9 13 15 1 2 2 3 3 5 9 14 9 14 9 20 2 0 4 0 7 0 0-1 0-1 0-2 10-2 20-1 31 1 0 1 0 1 0 2 0 0 0 0 2 0 15 3 28 13 39 24 1 1 2 2 3 3 5 7 10 16 9 25 0 1 0 2 0 3 0 0 1 0 2 0 0 6 1 11 1 17-1 0-2 0-2 0 0 1 0 2 0 3-1 11-5 19-11 28-1 1-1 1-2 3-3 5-6 7-11 8 1-3 1-3 3-4 0-1 1-1 2-2 0 0 0 0-1-2 1-4 2-5 4-8 2-4 4-7 6-11-1 0-1 0-5 0-1 0-2-1-2-1-2 0-4 0-6 0-9-1-17-2-25-6-4-1-6 0-11 1-4 0-9 1-14 2 0 0 0 0-2 0-6 1-12 1-17 1 1 0 2-1 4-1 0 0 0 0-1-3 1-4 1-4 1-6 1-4 0-6-1-9 0 1 0 2 0 3 0 0 0 1 1 1-1 4-1 4-1 7-4 2-5 2-9 2-3-1-3-1-5-2-1 1-2 3-2 4-2 2-2 2-4 4-1 0-1 1-2 2-1 0-2 1-2 2-1 0-2 1-3 2-5 5-5 5-8 6-1 2-1 2-2 4 0 1 0 2 0 3 0 1 0 2 0 3 0 1 0 2 0 3 0 2 0 3 0 4 0 2 0 5 0 7 0 4 0 7 0 11 0 2 0 4 0 7 0 1 0 2 0 3 0 1 0 2 0 3 0 1 0 1 0 3 1 2 1 2 4 5 0 4 0 7-2 11-2 1-2 1-6 1-3-1-3-1-5-3-1-2-1-2-1-5 0-1 1-2 1-3 2-5 2-10 2-16 0-2 0-4 0-6 0-4 0-8 0-11 0-21 0-21 4-27 3-3 6-5 10-8 1-1 2-2 4-4 2-1 4-3 5-4 4-4 7-7 10-11 1-1 2-1 4-2-4 1-6 3-8 6-1 0-2-1-3-1 0-1 0-1 0-2-2 0-3-1-4-1 1-1 2-1 4-2 0-1 0-2 0-3-1 1-2 1-2 2-6 5-9 8-16 9 3-5 8-9 13-13 2-2 4-4 7-6-2 1-3 2-4 3-1 0-2 1-2 1-2 2-4 3-5 5-5 2-8 1-12 0-1-1-2-1-2-2 0-1 0-2 0-3-1 0-2-1-2-1 1-2 3-4 5-6 0 0 1 0 2 0 0-1 0-2 1-3 0 0 1 0 2 0 0-1 0-2 0-3-1 1-2 2-3 3-3 3-6 6-9 9-1 1-3 3-4 4-2 2-4 4-6 6 0 0-1 1-2 1-2 3-4 5-7 7-3 2-4 3-5 6-1 4-1 7-1 11 0 0 0 0 0 3 0 3 0 6 0 10 0 2 0 5 0 7-1 15 0 30 0 44 0 1 0 2 0 3 0 14 0 14 1 18 1 3 1 3-1 6-3 0-3 0-5 0-2-2-2-5-2-7 0-1 0-2 0-3 0-1 0-2 0-3 0-4 0-7 0-10 0-3 0-5 0-7 0-6 0-12 0-18 0-6 0-13 0-19 0-12 1-24 1-36 1-1 2-1 3-2 3-2 6-4 9-7 0 0 0 0 2-2 3-3 5-6 7-9 5-5 10-10 16-15-2 1-3 2-4 3-6 5-10 8-18 8-2-3-2-4 0-8 2-2 4-4 7-6-1 1-2 1-2 1-2 2-2 2-5 3-1 2-1 2-2 6-1 4-1 4-4 6-2 1-2 1-5 0-2-1-2-1-4-4 0-2 0-2 1-5 3-2 3-2 6-2 5-3 9-7 14-11-2 1-3 2-4 3-1 0-2 1-2 1-2 2-2 2-5 5-2 0-3 1-4 1-4 1-6 2-8 5-1 0-1-1-1-1-3 0-5-1-7-1 0 43 0 86 0 130 0 0 1 0 2 0 2 4 2 6 2 10-2 2-2 2-4 4-4 1-6 1-9-1-2-4-1-7 0-12 0-1 1-1 2-2 0-4 0-7 0-11 0-1 0-2 0-3 0-4 0-7 0-11 0-2 0-4 0-7 0-5 0-11 1-17-3 0-6 0-9 0 0 10 0 19 0 29 0 0 1 0 2 0 0 2 0 4 0 6-2 0-3 0-4 0 0 1 0 1 0 2-1 0-2 0-2 0-3-4-3-7-3-12 0-1 0-2 0-4 0-1 0-1 0-5 0-1 0-3 0-4 0-4 0-8 1-12-3 0-6 0-9 0 0 22 0 44 0 66 1 1 3 1 5 2 1 3 1 6 1 10-3 4-4 4-8 5-4-1-6-2-8-6-1-4-1-5 1-9 3-2 3-2 6-3 0-1 0-2 0-3-1 1-1 1-1 2-1 0-2 0-2 0 0-1 0-1 0-2 0-62 0-62-1-91 0-2 0-4 0-6 0-3 0-6 0-10 0 0 0-1 0-2 0-13-14-23-22-32-2-2-4-4-6-6-3-3-6-5-9-8-1-1-2-2-2-3-7-7-13-9-22-10 0-1 0-1 0-2-2 0-4-1-6-1 0 8 3 13 9 18 1 1 3 2 5 3 3 3 3 3 4 5 3 5 6 8 11 10 0 1 0 2 1 2 2 3 2 3 4 5 5 3 9 8 14 12 0 1 0 1 0 2 1 0 2 1 3 1 1 2 2 3 4 5 1 0 2 1 3 1 0 32 0 65 0 98-1 0-2 1-3 1-1 0-2-1-2-1-1-3-2-7-2-10 0-1 0-3 0-4 0-1 0-2 0-3 0-3 0-5 0-8 0-1 0-2 1-4 0-10 0-21 0-31 0-3 0-5 0-7 0-5-1-11-1-16 0-1 0-3 0-4 0-7-1-11-6-17-1-1-2-1-2-2-3-2-5-5-7-7-1 0-2-1-2-2-1-1-2-1-2-2-1-1-2-1-2-2-2-2-2-2-5-3-3-2-4-4-5-7-3-3-3-3-6-4-2-2-2-2-4-4-2-3-4-6-6-8-1-1-2-2-3-3-2-2-2-2-5-3 0-13 0-26 0-40-4 2-8 4-11 6-1 0-2-1-2-1 0 0 0 0 3-1 0-1 0-2 0-3-1 0-2-1-2-1 8-5 16-9 27-8 0-1 0-1 0-2 1 0 2 0 3 0 14 0 14 0 18-3 3-3 5-7 7-11 3-4 7-7 13-10 3-2 6-4 9-6 3-2 3-2 5-2 0-1 0-1 0-2 7-4 15-5 24-6 4-1 4-2 9-2Z" fill="#d0f5fc" transform="translate(199.47265625,17.90234375)" />
<path data-fill-layer-id="vtracer-fill-2-024e97" d="M0 0c0 13 0 26 0 40 1 0 1 0 4 1 3 3 3 3 6 6 1 1 2 2 3 3 3 3 3 3 5 7 2 1 3 2 5 3 2 2 2 2 4 4 0 1 0 2 0 3 0 0 0 0 2 1 3 1 5 3 8 6 0 0 0 0 3 2 0 1 0 1 3 3 1 1 2 2 3 3 7 8 10 12 11 23 0 1 0 2 0 3 0 3 0 6 0 9 0 2 0 4 0 6 0 5 0 10 0 15-4 0-7 0-11 0 0 8 0 16 0 24 2 1 3 1 5 2 0 4 0 4 0 9-2 2-2 2-5 3-4 0-4 0-7-1 0-1 0-2 0-3-1 0-1 0-2 0 1-3 1-5 2-8 1-5 1-10 1-15 0-1 0-2 0-4 0-2 0-5 0-7-1 0-2 0-3 0-9 0-19 0-28 0-5 0-9 0-14 0-5 0-9 0-14 0-2 0-4 0-5 0-20 1-37-3-52-17-11-11-17-26-16-43 0-6 2-14 5-20 1 0 2 0 3 0 0-1 0-2 0-3 5-12 17-20 29-26 6-3 12-4 20-4 0-1 0-2 1-3 2-6 5-10 11-13 3-2 6-4 9-6 2-2 2-2 4-2 0 1 0 2 0 3 1-1 2-1 3-2 4-2 4-2 7-2Z" fill="#024e97" transform="translate(96,70)" />
<path data-fill-layer-id="vtracer-fill-3-2aafe5" d="M0 0c1 4 1 7 1 10-2 42-2 42 7 52 4 3 8 6 12 8 3 2 3 2 4 4 0 3 0 6 0 9 0 0 0 0 0 3 0 1 0 2 0 4 0 1 0 2 0 3 0 4 0 8 0 12 0 2 0 5 0 8 0 6 0 13 0 19 1 0 3 0 4 0 0-9 0-17 0-26 0-3 0-6 0-9 0-4 0-8 0-13 0-1 0-2 0-4 0-8 0-8-3-13-3-2-5-4-8-6-11-8-11-8-13-14 0-7 0-14 0-21 0-2 0-4 0-6 1-5 1-10 1-15 1 0 2 0 2 1 3 0 3 0 6 0 1 0 2 0 3 0 0 1 0 1 0 2 0 0 0 0 2 0 4 1 8 2 11 3 1 0 2 1 3 1 1 0 2 1 3 1 4 1 8 1 12 1 1 0 1 0 4 0 0 0 0 0 3 0 0 3 0 3 0 7-1 1-1 1-2 2 0 0 0 0-2 2 0 4 0 4 1 7 1 0 1 0 3 2 0 5-2 7-5 11-1 1-2 2-2 3-3 2-5 4-7 6-4 3-4 4-5 8 1-1 2-2 4-3 0-1 1-1 2-2 2-2 5-5 7-7 1-1 2-2 3-3 1-1 2-2 4-3 1-1 2-2 3-4 4-4 6-8 6-14 0-1 0-2 0-3 0-1-1-2-1-3 0 0 0 0 0-2 4-2 4-2 7-2 3 25 3 25-2 34-5 6-11 11-17 16-5 4-5 4-6 6-1 0-1 0-2 0 0 1 1 3 1 4 1-1 2-2 3-3 11-11 11-11 15-15 2-1 3-2 4-3 1 0 1-1 2-1 4-3 6-5 6-9 1-5 1-10 1-14 0-4 0-7 1-10 7-1 7-1 10-1 0 10 1 19 1 29-1 0-2 1-3 1 0 4 0 7 1 11-1 1-2 2-4 3-1 2-3 3-4 5-1 0-2 1-2 2-4 3-7 6-10 9-3 3-5 4-8 6-1 1-3 2-4 4-4 3-7 4-12 5-2 2-2 2-4 4 0 0-1-1-1-1-2 0-5-1-7-1 0 43 0 86 0 130 1 0 1 0 2 0 2 4 3 6 2 10-2 2-2 2-4 4-4 1-5 0-8-1-3-4-2-8-1-12 1-1 1-1 2-2 0-4 0-7 0-11 0-1 0-2 0-3 1-4 1-7 1-11 0-2 0-4 0-7 0-5 0-11 0-17-3 0-6 0-9 0 0 10 0 19 0 29 1 0 1 0 2 0 0 2 0 4 0 6-1 0-3 0-4 0 0 1 0 1 0 2-1 0-1 0-2 0-2-4-2-7-2-12 0-1 0-3 0-4 0-2 0-3 0-5 0-1 0-3 0-4 0-4 0-8 0-12-3 0-6 0-9 0 0-18 0-37 0-56-2-1-3-1-5-2-2-2-5-4-7-7-1-1-2-2-4-4 0 0-1-1-1-1-2-2-4-4-6-6-5-4-10-9-14-13-3-3-3-3-5-4 0-1 0-1 0-2-1-1-3-1-4-2-1-1-2-2-3-3 0-1 0-1 0-2-1 0-2-1-3-1 0-3-1-6-1-9 0 0 0 0 3-1 0 1 0 2 0 3 1 4 1 4 2 7 3 2 5 2 9 2 0 1 0 1 0 2 0 0 0 0 2 0 4 1 8 3 11 5 1 0 2 1 3 1 1 1 3 2 5 3-5-6-5-6-8-7 0-1-1-1-1-2-3-4-6-7-9-10 0 0 0 0 1-3 0 0 0 0 2 3 3 3 7 7 10 10 5 4 8 8 10 14 1 1 1 1 4 1 3 0 3 0 4-1 0-3 0-3 0-7-2-2-2-2-5-2-9-2-16-9-21-16-4-8-4-16-4-24 1-1 1-2 1-3 0-10 0-16 8-24 5-4 5-4 8-4 0 1 0 3 0 4 0 5 0 10 0 15 0 3 0 5 0 7 0 3 0 6 0 9 0 1 0 2 0 3 0 5 1 7 3 11 2 2 5 5 7 7 4 3 7 6 10 9 1 1 2 2 2 2 5 5 6 6 6 13 0 1 0 2 0 3 0 1 1 2 1 4 0 1 0 2 0 3 0 3 0 6 0 9 1 0 2 0 3 0 0-4 0-8 0-12 1-1 1-2 1-3 0-6 0-10-4-14-3-3-6-5-9-8-8-5-14-11-17-20-1-7-1-15-1-23 0-1 0-2 0-3 0-4 0-7 0-10 0-1 0-2 0-3 1-3 1-5 2-8 3-3 6-4 10-6 2-1 2-1 5-1Z" fill="#2aafe5" transform="translate(175,31)" />
<path data-fill-layer-id="vtracer-fill-3-2aafe5" d="M0 0c4 0 4 0 9 0 1 1 2 2 3 3 2 1 4 1 6 2 1 0 2 1 3 1 4 2 9 4 13 5 3 1 3 1 7 3 3 1 3 1 7 2 5 1 9 3 13 5 3 1 6 1 9 2 6 1 9 3 12 8 2 4 3 7 5 10 1 0 2 0 3 0 0 1 0 1 2 8 1 0 1-1 2-1 1 6 1 11 1 17-1 0-1 0-2 0 0 1 0 2 0 3 0 11-5 19-11 28-1 1-1 2-2 3-3 5-5 6-11 8 1-3 1-3 3-4 1-1 1-1 2-2 0 0 0 0 0-2 0-4 1-6 3-8 3-4 5-7 6-11-1 0-3 0-4 0-1-1-2-1-3-1-2 0-4 0-6 0-8-1-16-2-24-6-4-1-7-1-11 0-5 1-9 2-14 3-1 0-1 0-3 0-6 1-11 1-17 1 1 0 1 0 4-1 0-1 0-2 0-3 0-4 0-4 1-7 0-3-1-5-2-8 0 1 0 2 0 3 0 0 1 1 1 1 0 3 0 3-1 7-4 2-5 2-9 2-3-1-3-1-5-2-1 1-1 3-2 4-2 2-2 2-4 4 0 0-1 1-2 2 0 0 0 0-2 2-1 0-1 1-2 2-6 5-6 5-8 6-2 2-2 2-3 4 0 1 0 1 0 3 0 1 0 2 0 3 0 1 0 1 0 3 0 1 0 3 0 4 0 2 1 4 1 7 0 3 0 7 0 11 0 2 0 4 0 7 0 0 0 0 0 3 0 1 0 2 0 3 0 1 0 2 0 3 0 2 0 2 3 5 0 4 1 7-2 11-2 1-2 1-6 1-3-1-3-1-5-3-1-2-1-2-1-5 0-1 1-2 1-3 2-5 2-10 2-16 0-2 0-4 0-7 0-3 0-7 0-10 0-21 0-21 5-27 3-3 6-6 9-8 1-1 3-3 4-4 2-1 4-3 6-5 4-3 6-6 9-10 1-1 3-1 4-2-4 1-6 3-8 6-1 0-1 0-3-1 0-1 0-1 0-2-1 0-3-1-4-1 1-1 3-1 4-2 0-1 0-2 0-3-1 1-1 1-2 2-5 5-9 8-16 9 4-5 8-9 13-13 3-2 5-4 7-6-1 0-1 0-4 3 0 0 0 0-2 1-2 2-3 3-5 4-4 3-7 2-12 1-1-1-1-1-2-2 0-1 0-2 0-3-1 0-1-1-2-1 2-2 3-4 5-6 1 0 1 0 2 0 0-1 1-2 1-3 1 0 1 0 2 0 0-1 0-2 1-3 1-4 3-5 6-8 5-5 10-9 15-14 2-2 2-2 4-3 2-2 2-2 3-4 0-1 0-2 0-3 0-2 0-3 0-5Z" fill="#2aafe5" transform="translate(286,87)" />
<path data-fill-layer-id="vtracer-fill-2-024e97" d="M0 0c1 0 2 0 3 0 2 3 3 5 3 9-1 3-1 6-2 9 12 0 23-2 34-5 4 0 7 1 11 3 7 2 13 3 20 4 5 0 9 1 13 2-1 6-4 9-6 14-2 3-2 3-2 6-1 0-1 1-1 2-1 0-1 0-4 2-1 1-1 3-2 4-2 2-2 2-5 3 0 1 0 1-3 2-2 1-2 1-5 1 0 1 0 2 0 3-11 3-22 5-33 4-2 0-3 0-5 0-4 0-8 0-12 0-5 0-9 0-13 0-8 0-17 0-25 0 0-5 0-10-1-14 0-2 0-3 0-5 0-9 0-9 3-14 3-2 5-4 8-6 2-2 4-4 7-6 1-1 2-2 3-3 2-2 2-2 3-4 1 0 2 0 2 0 1 0 1 0 3 1 1 0 1 0 3 0 3 0 3 0 6-3 0-3 0-5-1-8-1 0-1-1-2-1Z" fill="#024e97" transform="translate(287,145)" />
<path data-fill-layer-id="vtracer-fill-3-2aafe5" d="M0 0c0 1 0 3 0 4 0 5 0 10 0 15 0 3 0 5 0 7 0 3 0 6 0 9 0 1 0 2 0 3 0 5 1 7 3 11 2 2 5 5 7 7 4 3 7 6 10 9 1 1 2 2 2 2 5 5 6 6 6 13 0 1 0 2 0 3 0 1 1 2 1 4 0 1 0 2 0 3 0 3 0 6 0 9 1 0 2 0 3 0 0-4 0-8 0-12 1-1 1-2 1-3 0-6 0-10-4-15-2-1-3-2-4-3 0-1-1-1-1-2 5 2 8 5 11 10 1 5 1 5 1 8 2 0 4 0 6 0 0 33 1 67 1 101 0 0-1 0-1 0 0-6 0-12 0-18-3 0-6 0-9 0 0 10 0 19 0 29 1 0 1 0 2 0 0 2 0 4 0 6-1 0-3 0-4 0 0 1 0 1 0 2-1 0-1 0-2 0-2-4-2-7-2-12 0-1 0-3 0-4 0-2 0-3 0-5 0-1 0-3 0-4 0-4 0-8 0-12-3 0-6 0-9 0 0-18 0-37 0-56-2-1-3-1-5-2-2-2-5-4-7-7-1-1-2-2-4-4 0 0-1-1-1-1-2-2-4-4-6-6-5-4-10-9-14-13-3-3-3-3-5-4 0-1 0-1 0-2-1-1-3-1-4-2-1-1-2-2-3-3 0-1 0-1 0-2-1 0-2-1-3-1 0-3-1-6-1-9 0 0 0 0 3-1 0 1 0 2 0 3 1 4 1 4 2 7 3 2 5 2 9 2 0 1 0 1 0 2 0 0 0 0 2 0 4 1 8 3 11 5 1 0 2 1 3 1 1 1 3 2 5 3-5-6-5-6-8-7 0-1-1-1-1-2-3-4-6-7-9-10 0-1 1-2 1-3 1 1 1 2 2 3 3 3 7 7 10 10 5 4 8 8 10 14 1 1 1 1 4 1 3 0 3 0 4-1 0-3 0-3 0-7-2-2-2-2-5-2-9-2-16-9-21-16-4-8-4-16-4-24 1-1 1-2 1-3 0-10 0-16 8-24 5-4 5-4 8-4Z" fill="#2aafe5" transform="translate(156,43)" />
<path data-fill-layer-id="vtracer-fill-1-d0f5fc" d="M0 0c5 0 11 0 16 0 3 8 5 17 7 26 1 1 1 3 1 4 1 4 2 7 3 11 2-4 3-7 4-11 0-1 1-2 1-2 0-3 1-6 2-8 0-3 1-5 1-8 1-2 2-4 2-7 1-3 1-3 2-5 5 0 11 0 16 0 0 24 0 48 0 72-4 0-8 0-12 0 0-14-1-28-1-43-6 18-6 18-8 26-2 9-2 9-3 10-3 0-5 0-8 0-3-8-5-15-7-23 0-2-1-5-1-7-1-1-1-2-1-3-1-3-1-3-2-5 0 15-1 30-1 45-4 0-7 0-11 0 0-24 0-48 0-72Z" fill="#D0F5FC" transform="translate(421,81)" />
<path data-fill-layer-id="vtracer-fill-2-024e97" d="M0 0c0 0 0 0 1 2-1 2-3 3-4 5-1 0-1 0-2 0-1 1-1 3-2 4-1 1-1 1-2 2 1 2 1 2 3 5 4 1 7 2 11 0 2-2 4-3 6-5 2-1 4-3 6-4 1 0 1 1 2 1-3 3-3 3-21 18 8-2 12-6 18-12 0 3 0 3-2 5-1 1-1 1-2 2 1 0 2 1 3 1 1 1 2 2 3 3 1-1 1-3 2-4 2-2 2-2 4-3 1 0 2 1 3 1-1 1-2 1-3 2-3 2-3 2-5 5-3 5-8 8-12 12-2 2-4 4-6 6-1 1-2 2-3 3-6 5-6 5-6 8 0 1 0 3-1 4 0 1 0 3 0 4 0 2 0 3 0 5 0 1 0 3 0 4 0 4 0 7 0 11-4 0-7 0-11 0 0 8 0 16 0 24-1 0-1 0-5 1-1-3-1-5-1-8 0-1 0-2 0-3 0-1 0-2 0-3 0-1 0-1 0-3 0-3 0-5 0-8-4 0-7 0-11 0 0 1-1 3-1 4 0-7 0-15 0-22 0-2 0-5 0-7 0-4 0-8 0-11 0-1 0-2 1-4 0-1 0-2 0-3 0-1 0-1 0-2 0-5 3-8 6-11 1 0 2-1 2-1 4-2 6-5 9-8 0 0 0 0 2-2 2-2 4-3 5-5 2-1 3-3 4-4 3-3 6-6 9-9Z" fill="#024e97" transform="translate(257,123)" />
<path data-fill-layer-id="vtracer-fill-4-f0b73f" d="M0 0c4 2 4 2 7 4 0-1 0-2 0-3 4 0 7 0 11 0 0 23 0 46 0 70-4 0-9 0-13 0 0-7-1-15-1-22-2 1-3 2-5 3-5 1-9 1-13-2-7-7-7-17-7-27 1-9 4-16 11-22 4-1 6-1 10-1Z" fill="#f0b73f" transform="translate(903,102)" />
<path data-fill-layer-id="vtracer-fill-2-024e97" d="M0 0c1 0 1 0 6 1 0 1 0 1 0 2 0 0 0 0 2 0 1 0 2 0 3 0 1 0 2 0 3 0 5 1 9 5 13 8 0 1 1 2 2 3 1 0 1 0 3 3 1 0 1 0 3 3 2 2 4 4 6 6 3 3 6 6 9 9 2 2 4 4 6 6 1 1 2 2 3 3 1 1 2 2 3 3 1 0 1 1 2 2 4 4 4 7 4 12 0 2 0 3 0 4 0 2 0 3 0 5 0 1 0 2 0 4 1 5 1 9 1 14 0 3 0 6 0 9 0 8 0 15 0 23 0 0-1 0-1 0 0-4 0-7 0-11-3 0-7 0-10 0 0-15 0-30 0-45-1 0-3-1-4-1-1-2-3-3-4-5-2-2-3-3-5-5-1-1-1-1-2-2-1-1-2-2-2-3-1 0-2-1-3-2-2-2-4-3-7-5-1-2-2-3-3-5-2-1-3-2-5-3-5-5-5-5-7-8-2-4-5-5-8-8-4-2-6-5-8-9 0-3 0-5 0-8Z" fill="#024e97" transform="translate(100,99)" />
<path data-fill-layer-id="vtracer-fill-4-f0b73f" d="M0 0c5 0 9 0 14 0 3 11 5 22 7 33 1 3 2 7 2 10 0 1 1 2 1 3 1 6 1 6 2 8 0-1 1-3 1-5 1-5 2-11 3-16 1-3 1-5 2-7 0-4 1-7 2-11 0-1 0-2 0-3 0-1 0-1 1-3 0-1 0-1 1-3 0-2 0-2 1-5 4 0 9 0 13 0-2 8-3 16-5 24-1 1-1 2-1 4-1 2-1 5-2 8-1 4-2 8-3 12-1 3-1 6-2 8 0 1 0 1-1 4 0 1 0 2-1 3 0 1 0 2 0 3-1 3-1 3-2 6-5 0-10 0-15 0-4-14-7-28-11-43-1-3-2-7-3-10 0-3-1-5-1-7-1-1-1-2-1-3-2-8-2-8-2-10Z" fill="#f0b73f" transform="translate(696,80)" />
<path data-fill-layer-id="vtracer-fill-2-024e97" d="M0 0c1 0 1 0 2 0 0 1 0 2 0 3 1 4 1 4 2 7 3 2 5 2 9 2 0 1 0 1 0 2 1 0 1 0 2 0 4 1 8 3 11 5 1 0 2 1 3 1 1 1 3 2 5 3-5-6-5-6-8-7 0-1-1-1-1-2-3-4-6-7-9-10 0-1 1-2 1-3 1 1 1 2 2 3 3 3 7 7 10 10 5 4 8 8 10 14 1 1 1 1 4 1 3 0 3 0 4-1 1-6 1-6-2-9-1-1-1-1-2-2 4 1 4 1 7 4 1 4 1 4 1 8 3-1 7-1 10-2 0 8 0 15 0 23 0 3 1 5 1 8 0 18 0 37 0 55-3 0-7 0-10 0 0-18 0-37 0-56-2-1-3-1-5-2-2-2-5-4-7-7-1-1-2-2-4-4 0 0-1-1-1-1-2-2-4-4-6-6-5-4-10-9-14-13-3-3-3-3-5-4 0-1 0-1 0-2-1-1-3-1-4-2-1-1-2-2-3-3 0-1 0-1 0-2-1 0-2-1-3-1 0-3-1-6-1-9 0 0 1-1 1-1Z" fill="#024e97" transform="translate(122,95)" />
<path data-fill-layer-id="vtracer-fill-3-2aafe5" d="M0 0c0 12 0 24 0 37-4-1-8-1-12-2 0-1 0-1 0-2-2 0-4-1-6-1 1 8 3 13 9 18 2 1 3 2 5 3 3 3 3 3 4 5 3 5 6 8 11 10 0 1 1 2 1 2 2 3 2 3 5 5 5 3 9 7 13 12 0 1 0 1 0 2 1 0 2 1 3 1 1 2 3 3 4 5 1 0 2 1 3 1 0 32 0 65 0 98-1 0-2 1-3 1-1 0-1-1-2-1-1-4-1-7-1-10 0-2 0-3 0-4 0-1 0-2 0-3 0-3 0-5 0-8 0-1 0-2 0-4 0-10 0-21 0-32 0-2 0-4 0-6 0-5 0-11 0-16 0-1 0-3 0-4 0-7-2-12-7-17-1-1-1-1-2-2-2-2-4-5-7-7 0-1-1-1-2-2-1-1-1-2-2-2-1-1-1-2-2-2-2-2-2-2-5-4-3-1-3-3-5-6-3-3-3-3-6-4-2-2-2-2-3-4-2-3-4-6-7-8-1-1-2-2-3-3-2-2-2-2-5-3 0-2 1-5 1-7 1 0 1 0 2 0 0-11 0-22 0-34 8-2 8-2 19-2Z" fill="#2aafe5" transform="translate(118,67)" />
<path data-fill-layer-id="vtracer-fill-4-f0b73f" d="M0 0c4 3 6 5 8 10 0 3 0 6 0 9 0 1 0 2 0 3 0 2 0 5 0 8 0 2 0 4 0 6 0 4 0 9 0 14-2 0-4 0-5 0-1 0-2 0-3 0 0 0 0 0-2 0-1-1-2-2-2-3-1 0-2 1-3 2-4 2-8 3-13 2-5-2-5-3-7-7-2-6-1-11 1-16 4-5 8-8 15-9 2 0 4 0 7 0-2-8-2-8-3-9-6 0-11 0-16 2-2-4-2-5-1-9 7-5 16-6 24-3Z" fill="#F0B73F" transform="translate(832.375,103.1875)" />
<path data-fill-layer-id="vtracer-fill-4-f0b73f" d="M0 0c4 0 9 0 13 0 0 1 0 2 0 4 0 4 0 9 0 13 0 2 0 4 1 6 0 3 0 5 0 8 0 1 0 2 0 3 0 6 0 6 1 7 7-1 7-1 8-2 0-3 0-6 0-9 0 0 0-1 0-2 0-3 1-6 1-9 0-1 0-3 0-5 0-5 0-9 0-14 4 0 9 0 13 0 0 17 0 33 0 50-4 0-7 0-11 0-1-1-1-1-2-2-1 0-1 1-2 1-5 3-10 3-15 2-3-2-5-3-6-7-1-4-1-8-1-13 0 0 0-1 0-2 0-3 0-6 0-9 0-2 0-4 0-6 0-4 0-9 0-14Z" fill="#f0b73f" transform="translate(929,103)" />
<path data-fill-layer-id="vtracer-fill-1-d0f5fc" d="M0 0c5 6 5 11 5 18 0 1 0 2 0 2 0 3 0 6 0 9 0 2 0 3 0 5 0 5 0 9 0 14-4 0-7 0-11 0 0-1 0-1 0-2-1 1-2 1-3 2-5 2-10 2-16 0-3-3-5-5-5-10 0-5 0-9 3-14 5-5 11-7 18-7 0 0 0 0 2 0-1-7-1-7-3-9-6 0-10 0-15 3-1-3-1-6-2-9 9-5 18-7 27-2Z" fill="#D0F5FC" transform="translate(513,105)" />
<path data-fill-layer-id="vtracer-fill-1-d0f5fc" d="M0 0c3 1 3 1 6 3 3 6 3 11 3 18 0 0 0 1 0 2 0 3 0 6 0 9 0 1 0 3 0 5 0 5 0 9 0 14-4 0-8 0-12 0 0-1 0-2 0-3 0-4 0-9 0-13 0-1 0-3 0-5 0-3-1-5-1-8 0-1 0-3 0-4 0-4 0-4-2-7-4 0-4 0-7 0-2 9-2 17-2 26 0 1 0 1 0 4 0 3 0 7 0 10-4 0-9 0-13 0 0-16 0-33 0-50 4 0 7 0 11 0 1 1 1 2 2 3 1-1 2-1 2-2 5-3 8-3 13-2Z" fill="#D0F5FC" transform="translate(554,102)" />
<path data-fill-layer-id="vtracer-fill-1-d0f5fc" d="M0 0c5 3 7 6 9 12 1 5 1 10 1 15-1 1-1 1-4 1-1 0-2 0-3 0-1 0-2 0-3 0-1 0-2 0-3 0-1 0-3 0-4 0-3 0-5 0-8 0 0 1 1 3 1 5 0 1 1 1 1 2 1 3 1 3 4 6 5 1 8 1 13-1 1 0 2 0 4 0 0 1 0 1 1 6-5 4-8 5-15 5-1 0-1 0-4 0-5 0-8-2-12-6-5-8-7-19-5-29 2-7 5-12 11-16 6-2 10-2 16 0Z" fill="#D0F5FC" transform="translate(640.25,103.125)" />
<path data-fill-layer-id="vtracer-fill-1-d0f5fc" d="M0 0c4 0 8 0 12 0 0 1 0 2 0 3 0 5 0 9 0 13 0 2 0 4 0 6 0 2 0 5 0 7 1 2 1 4 1 5 0 4 0 4 3 7 3 0 3 0 5-1 2-4 2-6 2-10 0-1 0-2 0-3 0-1 0-3 0-4 0-8 0-15 1-23 4 0 8 0 12 0 0 17 0 33 0 50-4 0-7 0-11 0 0-1 0-3 0-4-1 1-2 2-3 3-4 2-7 3-12 2-4 0-6-2-9-5-1-5-1-9-1-14 0 0 0-1 0-2 0-3 0-6 0-9 0-2 0-4 0-6 0-5 0-10 0-15Z" fill="#d0f5fc" transform="translate(571,103)" />
<path data-fill-layer-id="vtracer-fill-4-f0b73f" d="M0 0c5 3 7 7 9 12 0 5 0 10 0 16-8 0-16 0-24 0 0 4 1 8 2 12 8 2 12 2 20-1 0 1 0 1 1 8-5 4-9 4-15 4-1 0-2 0-4 0-5 0-8-2-12-5-6-10-6-22-4-33 3-6 6-10 12-14 5-1 10-1 15 1Z" fill="#F0B73F" transform="translate(769.3125,103.1875)" />
<path data-fill-layer-id="vtracer-fill-4-f0b73f" d="M0 0c5 4 6 9 6 16 0 3 0 7 0 10-8 0-16 0-24 0 2 10 2 10 5 13 2 0 2 0 5 0 1 0 2 0 3 0 3 0 6 0 9-1 0 3 0 5 0 8-7 4-14 4-21 3-5-2-8-4-10-9-4-8-5-21-2-30 3-6 5-9 10-12 7-2 12-1 19 2Z" fill="#F0B73F" transform="translate(1002,105)" />
<path data-fill-layer-id="vtracer-fill-2-024e97" d="M0 0c1 0 1 1 2 1-1 1-3 3-4 4 0 1-1 1-2 2-4 4-8 6-14 7-1 2-1 2-1 5 2 2 2 2 4 4 3 0 3 0 6-2 1-2 1-4 2-7 2-4 5-6 9-9 0 3 0 3-2 6-3 2-3 2-5 2 0 3 0 5 0 8 8-1 12-3 18-9 1-1 2-2 3-3 1 0 1 1 2 1-1 1-1 1-2 2-2 2-5 5-7 7 0 0 0 0-3 3-4 4-8 9-12 13-2 3-5 5-7 7 0 0-1 1-2 2-2 1-2 1-5 1 0 1 0 1 0 4 0 6 0 11 0 16 1 3 1 5 1 7 0 4 0 7 0 10 0 1 0 2 0 4 0 2 0 5 0 7 0 0 0 0-1 1-3 0-7 0-10 0 0 7 0 14 0 21 0 0-1 0-1 0 0-20 0-41 0-61 1-5 1-9 1-14 0-9 0-17 0-26 3 0 6 0 9 0 0 0 0 0 2-2 3-2 3-2 6-3 6-2 9-5 13-9Z" fill="#024e97" transform="translate(234,114)" />
<path data-fill-layer-id="vtracer-fill-2-024e97" d="M0 0c0 3 0 3-2 5-1 1-1 1-2 2 1 0 2 1 3 1 1 1 2 2 3 3 1-1 1-3 2-4 2-2 2-2 4-3 1 0 2 1 3 1-1 1-2 1-3 2-3 2-3 2-5 5-3 5-8 8-12 12-2 2-4 4-6 6-1 1-2 2-3 3-6 5-6 5-6 8 0 1 0 3-1 4 0 1 0 3 0 4 0 2 0 3 0 5 0 1 0 3 0 4 0 4 0 7 0 11-4 0-7 0-11 0 0 8 0 16 0 24-1 0-1 0-5 1-1-3-1-5-1-9 0 0 0 0 0-3 0-5 0-11 0-16 0-2 0-5-1-8 0-4 0-8 0-12 0-1 0-2 0-4 0-8 0-8 4-12 1-1 2-1 3-2 2-2 4-4 6-6 2-1 2-1 5-1-3 3-7 7-10 10 4-3 8-6 11-10 5-4 9-8 13-11 4-4 7-7 11-10Z" fill="#024e97" transform="translate(273,139)" />
<path data-fill-layer-id="vtracer-fill-3-2aafe5" d="M0 0c2 0 4 0 6 0 2 2 2 2 4 5 0 1 0 1 2 3 3 7 3 15 2 23-2 4-4 6-7 8-2 2-4 4-6 6-2 1-3 2-4 3-2 3-5 5-8 8-2 2-5 4-8 6-1 1-2 2-4 4-3 4-6 5-12 5-1 0-2 0-3 0-1-3-1-5 0-8 2-2 5-4 7-6 0-1 1-2 1-2 6-10 16-17 24-24 7-5 7-5 8-10 0-1 0-2 0-3-1-1-3-1-4-2 1-5 1-11 2-16Z" fill="#2AAFE5" transform="translate(267,64)" />
<path data-fill-layer-id="vtracer-fill-3-2aafe5" d="M0 0c3 0 3 0 5 2 0 0 1 1 2 2 2 2 3 4 6 6 0 1 0 1 0 2 1 1 3 1 4 2 2 2 2 2 4 4 1 0 1 1 2 2 1 1 1 1 2 2 5 5 10 10 15 14 3 3 6 6 9 9 2 2 2 2 6 4 0 40 0 81 0 122 2 1 3 1 5 2 2 3 1 6 1 10-3 3-4 4-8 5-4-2-6-2-8-6 0-4 0-6 2-9 2-2 2-2 5-3 0-1 0-2 0-3 0 1-1 1-1 2-1 0-1 0-2 0 0-1 0-1 0-2 0-62 0-62 0-91 0-2 0-4 0-7 0-3 0-6 0-9 0 0 0-1 0-2-1-11-8-16-15-23-1-1-2-2-3-3-3-3-6-6-9-9-3-3-6-6-10-10-2-1-3-3-5-5-1-1-2-2-3-3-1-1-2-1-2-2-2-2-2-2-2-3Z" fill="#2aafe5" transform="translate(119,103)" />
<path data-fill-layer-id="vtracer-fill-4-f0b73f" d="M0 0c4 0 9 0 13 0 0 21 1 42 1 64 1 1 3 1 4 2 0 2 0 5 0 7-5 2-10 2-14 0-4-4-4-8-4-14 0-1 0-2 0-4 0-1 0-2 0-4 0-1 0-3 0-4 0-5 0-10 0-14 0-3 0-7 0-10 0-8 0-15 0-23Z" fill="#f0b73f" transform="translate(784,80)" />
<path data-fill-layer-id="vtracer-fill-4-f0b73f" d="M0 0c11 0 21 0 32 0 0 5 0 7-2 11-1 1-1 1-2 3-1 1-1 2-2 3 0 1-1 2-1 3-2 3-3 6-5 9-1 1-1 2-2 3-1 3-3 5-4 8 6 0 12 1 18 1 0 3 0 6 0 9-11 1-22 1-33 1-2-5 0-9 3-13 0-1 0-1 1-4 1-1 2-2 2-3 1-2 2-3 3-4 1-3 2-5 4-8 0 0 0 0 1-3 2-2 3-5 4-7-5 0-11 0-16 0 0-3-1-6-1-9Z" fill="#f0b73f" transform="translate(847,103)" />
<path data-fill-layer-id="vtracer-fill-1-d0f5fc" d="M0 0c4 0 8 0 12 0 0 21 0 43 0 65 1 0 3 1 4 1 0 2 0 5 0 7-4 2-7 1-11 1-4-2-4-2-5-4-1-3-1-6-1-10 0-1 0-2 0-4 0-1 0-2 0-4 0-1 0-3 0-4 0-3 0-6 0-10 0-4 0-9 0-14 0-3 0-6 0-9 0-1 0-2 0-4 0-1 0-3 0-4 0-1 0-2 0-3 0-3 0-3 1-4Z" fill="#d0f5fc" transform="translate(657,80)" />
<path data-fill-layer-id="vtracer-fill-4-f0b73f" d="M0 0c10 0 20 0 31 0 0 9 0 9-3 14-1 1-1 2-2 4 0 1-1 2-2 3 0 1-1 2-2 4-3 5-6 11-9 16 6 0 13 0 19 0 0 3 0 6 0 9-11 0-22 0-33 0 0-8 0-8 2-12 1-1 1-2 2-3 1-1 1-2 2-3 1-2 2-4 3-6 0-1 1-2 1-3 3-4 5-9 7-13-5 0-11-1-16-1 0-3 0-6 0-9Z" fill="#f0b73f" transform="translate(1013,103)" />
<path data-fill-layer-id="vtracer-fill-2-024e97" d="M0 0c5 2 8 5 11 10 1 5 1 5 1 8 2 0 4 0 6 0 0 33 1 67 1 101 0 0-1 0-1 0 0-6 0-12 0-18-3 0-6 0-9 0 0 10 0 20 0 31-1 0-3 0-4 0 0-9 0-18 0-27 1 0 2 0 3 0 0-12 0-24 0-37 0-5 0-11 1-17 0-5 0-11 0-16 0-2 0-4 0-7 0-2 0-5 0-8 0-1 0-2 0-3 0-6-2-9-6-13-2-2-2-2-3-4Z" fill="#024e97" transform="translate(180,107)" />
<path data-fill-layer-id="vtracer-fill-3-2aafe5" d="M0 0c0 11 0 22 0 33 0-1-1-1-1-2-1 0-1 0-2 0 0-1 0-1-2-4-1 0-1 0-3-1 0-1 0-1 0-2-1 0-2 0-3 0-4-1-6-2-9-4-3 0-3 0-5 0 0 1 0 1-1 2-1 3-2 5-4 8-4 1-8 2-12 2-13 2-26 10-34 21 0 0 0 0-1-3-1 0-2 0-3 0-1 1-1 3-2 4 0-5 4-9 8-13 11-9 24-17 39-16 0-1 0-2 1-3 2-6 5-10 11-13 3-2 6-4 9-6 2-2 2-2 4-2 0 1 0 2 0 3 1-1 2-1 3-2 4-2 4-2 7-2Z" fill="#2AAFE5" transform="translate(96,70)" />
<path data-fill-layer-id="vtracer-fill-3-2aafe5" d="M0 0c2 0 3 0 5 0 0 1 0 2 0 3 0 4 0 9 0 13 0 2 0 3 0 5 1 1 1 3 1 4 0 2 0 3 0 4 0 6 2 10 6 14 2 2 2 2 4 4 0 1 0 2 0 3 1 0 3 1 4 1 3 3 3 3 5 5 0 1-1 2-1 3 0-1 0-1 0-2-1 0-1-1-2-1-4-1-8-3-11-5-2 0-3-1-5-2-1 0-2 0-3-1 0-1 0-1 0-2-1 0-1 0-5 1 0-1 0-1 0-2-1 0-3-1-4-1-2-4-2-6-2-10-1 0-2 0-3 0 0-3 0-7 0-10 0-1 0-2 0-3 0-5 0-11 1-16 3 0 7-1 10-1 0-1 0-3 0-4Z" fill="#2AAFE5" transform="translate(132,61)" />
<path data-fill-layer-id="vtracer-fill-3-2aafe5" d="M0 0c0 0 1 0 1 0 0 12 0 24 0 37 1 0 1 0 5-1 0 32 0 63 0 96 1 0 1 0 2 0 2 4 3 6 2 10-2 2-2 2-4 4-4 1-5 0-8-1-3-4-2-8-1-12 0 0 0 0 2-2 0-2 0-2 0-5 0-1 0-2 1-4 0-1 0-2 0-3 0-2 0-3 0-4 0-21 0-42 0-63 0-6 0-12 0-18 0-11 0-23 0-34Z" fill="#2AAFE5" transform="translate(198,126)" />
<path data-fill-layer-id="vtracer-fill-3-2aafe5" d="M0 0c0 3 0 3-2 5-1 1-2 2-2 3-5 4-6 5-6 11 0 2 0 4 0 6 0 1 0 2 0 3-1 4-1 7-1 11 0 1 0 2 0 3 0 16 0 32 0 48 0 1 0 2 0 3 1 14 1 14 2 18 0 3 0 3-2 6-3 0-3 0-5 0-2-2-1-5-1-8 0-1 0-1 0-2 0-1 0-1 0-3 0-4 0-7 0-10 0-3 0-5 0-7 0-6 0-12 0-18 0-6 0-13 0-19 0-12 0-24 0-36 1 0 1 0 3-2 4-2 7-4 9-7 1-1 2-2 3-3 1-1 1-1 2-2Z" fill="#2aafe5" transform="translate(231,145)" />
<path data-fill-layer-id="vtracer-fill-3-2aafe5" d="M0 0c0 1 0 2 0 3 1 0 3 0 4 0 0 0 0 0 0 3 1 1 1 2 1 3 1 1 3 1 4 2 1 1 3 2 4 4 2 2 5 5 8 7 4 4 8 8 12 12 2 2 2 2 5 4 0 1 0 1 0 2 1 1 3 1 4 2 4 3 7 6 8 11 0 4 0 7 0 11-1 1-1 2-1 3 0 4 0 8 0 12 0 2 0 5 0 7 0 5-1 10-1 15 0-1-1-2-1-3-1 0-2 0-3 0 0 1 0 1-1 4 0-1 0-3 0-4 0-6 0-11 0-17 0-2 0-5 1-7 0-3 0-7 0-10 0-1 0-2 0-3 0-6-1-9-4-14-2-1-3-2-4-3-1-1-2-2-3-2 0-1 0-1-2-3-4-3-8-7-12-11-1-1-2-2-3-3-2-2-4-4-5-6-7-7-7-7-13-8-1 1-2 1-3 1-2-2-2-2-3-4 1-4 1-4 2-7 2-1 2-1 6-1Z" fill="#2aafe5" transform="translate(93,128)" />
<path data-fill-layer-id="vtracer-fill-4-f0b73f" d="M0 0c0 3 0 3 0 6-2 3-4 5-7 7-1 1-1 1-2 2-3 3-6 5-10 7-2 2-3 4-4 6 0 4 0 7 0 10 0 1 0 2 0 3 0 2 0 5 0 7 0 4 0 7 0 11 0 2 0 4 0 7 0 1 0 2 0 3 0 1 1 2 1 3 0 1 0 1 0 3 0 2 0 2 3 5 0 4 1 7-2 11-2 1-2 1-6 1-3-1-3-1-5-3-1-2-1-2-1-5 0-1 1-2 1-3 2-5 2-10 2-16 0-2 0-4 0-7 0-3 0-7 0-10 0-21 0-21 5-27 3-3 6-6 9-8 1-1 3-3 4-4 2-1 3-2 4-3 1-1 1-1 2-2 5-4 5-4 6-4Z" fill="#f0b73f" transform="translate(276,152)" />
<path data-fill-layer-id="vtracer-fill-3-2aafe5" d="M0 0c0 0 1 0 1 0 0 10 0 20 0 29 0 5 0 10 0 14 0 5 0 9 0 13 0 2 0 4 0 5 0 3 0 5 0 7 0 2 0 3 0 5 0 2 0 5-1 8-1 0-2 0-3 0 0 9 0 18 0 27 1 0 3 0 4 0 0-1 0-1 0-2 1 0 1 0 2 0 0 2 0 4 0 6-1 0-3 0-4 0 0 1 0 1 0 2-1 0-1 0-2 0-2-5-2-7-2-12 0-1 0-2 0-2 0-3 0-6 0-8 0-2 0-4 0-6 0-5 0-9 0-14 0-5 0-10 0-15 0-10 0-19 0-29 1 0 1 0 2 0 0-6 0-11 0-17 1 0 2 0 3 0 0-4 0-7 0-11Z" fill="#2aafe5" transform="translate(188,131)" />
<path data-fill-layer-id="vtracer-fill-3-2aafe5" d="M0 0c1 0 1 1 2 1-1 1-1 1-2 2-5 4-9 8-9 15 0 2 0 5 0 8 0 1 0 2 0 4 0 4 0 8 0 13 0 3 0 6 0 8 0 8 0 15 0 22-1 0-1 0-5 1-1-3-1-5-1-9 0 0 0 0 0-3 0-5 0-11 0-16 0-2 0-5-1-8 0-4 0-8 0-12 0-1 0-2 0-4 0-8 0-8 4-12 1-1 2-1 3-2 1-1 3-2 4-4 1 0 2-1 2-2 1 0 2-1 3-2Z" fill="#2AAFE5" transform="translate(246,159)" />
<path d="M0 0c3 0 3 0 5 2 2 5 2 10 2 15 0 1 0 2 0 3 0 5 0 8-3 12-2 1-2 1-5 2-2-1-2-1-5-4-1-4-1-8-1-12 0-1 0-2 0-3 0-9 0-9 2-13 2-2 2-2 5-2Z" fill="none" transform="translate(901.9375,111.5625)"/>
<path data-fill-layer-id="vtracer-fill-1-d0f5fc" d="M0 0c3 1 3 1 5 4 0 3 0 3-1 6-3 2-3 2-8 2-9 1-15 8-21 14-6 5-11 9-18 10 4-5 8-8 13-12 3-3 6-5 9-8 3-3 5-5 9-7 4-2 4-4 5-8 4-2 4-2 7-1Z" fill="#D0F5FC" transform="translate(297.125,115.6875)" />
<path data-fill-layer-id="vtracer-fill-3-2aafe5" d="M0 0c4 1 4 1 7 3 2 5 3 7 2 12-2 3-2 3-4 5-4 1-6 1-10 0-3-3-4-5-4-9 0-7 2-10 9-11Z" fill="#2AAFE5" transform="translate(841,201.25)" />
<path data-fill-layer-id="vtracer-fill-3-2aafe5" d="M0 0c12 0 12 0 15 3 2 3 2 5 2 9-1 3-2 5-5 7-4 1-4 1-12 1 0-7 0-13 0-20Z" fill="#2AAFE5" transform="translate(492,202)" />
<path data-fill-layer-id="vtracer-fill-3-2aafe5" d="M0 0c2 2 4 3 5 6 0 4 0 7-2 11-3 3-5 3-9 3-4-2-5-3-7-7-1-4 0-6 2-9 3-5 6-4 11-4Z" fill="#2AAFE5" transform="translate(938,202)" />
<path data-fill-layer-id="vtracer-fill-3-2aafe5" d="M0 0c4 3 5 4 6 9 0 5-1 6-4 10-3 1-5 1-8 1-3-2-5-3-6-7 0-4 0-6 2-10 3-3 5-4 10-3Z" fill="#2AAFE5" transform="translate(670,202)" />
<path data-fill-layer-id="vtracer-fill-3-2aafe5" d="M0 0c9 0 9 0 13 2 3 3 3 4 3 8 0 4-1 6-4 9-4 1-7 1-11 1-1-1-1-1-1-5 0-2 0-4 0-6 0 0 0-1 0-2 0-3 0-5 0-7Z" fill="#2AAFE5" transform="translate(708,202)" />
<path data-fill-layer-id="vtracer-fill-4-f0b73f" d="M0 0c0 0 1 0 1 0 0 7 0 15 0 22 1 0 1 0 2 0 2 4 3 6 2 10-2 2-2 2-4 4-4 1-5 0-8-1-3-4-2-8-1-12 1-1 1-1 2-2 0-2 1-5 1-7 0-1 0-3 1-4 0-1 0-2 0-3 1 0 2 0 3 0 0-2 1-5 1-7Z" fill="#f0b73f" transform="translate(203,236)" />
<path data-fill-layer-id="vtracer-fill-4-f0b73f" d="M0 0c0 0 1 0 1 0 0 4 0 7 0 11 1 0 1 0 5 2 2 3 1 6 1 10-3 3-4 4-8 5-4-2-6-2-8-6-1-4 0-6 2-9 2-2 2-2 5-3 0-1 0-3 0-4 1-5 1-5 2-6Z" fill="#F0B73F" transform="translate(173,263)" />
<path data-fill-layer-id="vtracer-fill-2-024e97" d="M0 0c0 0 1 0 1 0 0 8 0 16 0 24 1 0 1 0 5 2 0 4 0 4 0 9-2 2-2 2-5 3-4 0-4 0-7-1 0-1 0-2 0-3-1 0-1 0-2 0 0-3 1-5 2-7 1-3 2-6 2-9 1 0 2 0 3 0 0-3 0-3 1-18Z" fill="#024e97" transform="translate(141,208)" />
<path data-fill-layer-id="vtracer-fill-3-2aafe5" d="M0 0c5 1 5 1 7 4 1 1 1 2 2 3 0 1 1 2 2 3 0 0 1 1 1 2 0-4 1-8 1-12 1 0 2 0 3 0 0 7 0 13 0 20-1 0-3 0-4 0-2-3-2-3-4-6 0-1-1-2-2-3 0-1-1-2-1-3 0 4-1 8-1 12-1 0-3 0-4 0 0-7 0-13 0-20Z" fill="#2AAFE5" transform="translate(786,202)" />
<path data-fill-layer-id="vtracer-fill-3-2aafe5" d="M0 0c5 1 5 1 7 3 0 1 1 2 1 3 1 2 2 3 3 5 0 0 1 0 1 0 0-4 1-7 1-11 1 0 2 0 3 0 0 7 0 13 0 20-4-1-4-1-6-3 0-1-1-2-2-3-3-6-3-6-5-7 0 4 0 9 0 13-1 0-2-1-3-1 0-6 0-13 0-19Z" fill="#2aafe5" transform="translate(950,202)" />
<path data-fill-layer-id="vtracer-fill-3-2aafe5" d="M0 0c5 1 5 2 8 6 0 1 1 2 2 3 0 1 1 1 1 2 0-4 1-7 1-11 1 0 2 0 3 0 0 7 0 13 0 20-4-1-4-1-7-5-2-4-2-4-2-6-1 0-1 0-2 0 0 4-1 7-1 11-1 0-2 0-3 0 0-7 0-13 0-20Z" fill="#2AAFE5" transform="translate(810,202)" />
<path data-fill-layer-id="vtracer-fill-4-f0b73f" d="M0 0c3 4 2 6 3 11 0 8 0 8 1 11 0 3 0 3-2 6-3 0-3 0-5 0-2-2-1-5-1-8 0-1 0-2 0-3 0-1 0-2 0-3 0-4 0-7 1-11 1 0 2 0 3 0 0-1 0-2 0-3Z" fill="#F0B73F" transform="translate(218,234)" />
<path data-fill-layer-id="vtracer-fill-3-2aafe5" d="M0 0c1 0 3 0 4 0 1 3 2 6 4 9 0 1 0 2 1 2 2 7 2 7 2 9-1 0-3-1-4-1 0-2-1-3-1-5-3 0-5 0-8 0-1 2-1 4-2 6-1 0-1 0-2 0 0-7 3-13 6-20Z" fill="#2aafe5" transform="translate(881,202)" />
<path data-fill-layer-id="vtracer-fill-1-d0f5fc" d="M0 0c2 3 2 3 2 7-1 3-1 3-4 5-4 0-7 0-11-2 0-4 0-6 2-9 4-4 6-3 11-1Z" fill="#D0F5FC" transform="translate(289,146)" />
<path d="M0 0c0 2 0 4 0 5 0 1 0 2 0 3 0 3-1 5-3 7-4 0-4 0-7 0-3-4-3-6-2-10 3-5 6-6 12-5Z" fill="none" transform="translate(828,130)"/>
<path data-fill-layer-id="vtracer-fill-3-2aafe5" d="M0 0c1 0 2 0 3 0 1 3 2 6 4 9 0 1 0 2 1 2 2 7 2 7 2 9-1 0-3-1-4-1 0-2-1-3-1-5-3 0-5 0-8 0 0 2-1 4-1 6-1 0-3-1-4-1 1-3 2-6 3-9 1-1 1-2 1-3 3-6 3-6 4-7Z" fill="#2aafe5" transform="translate(558,202)" />
<path d="M0 0c0 9 0 9-1 13-2 2-2 2-6 2-3 0-3 0-5-2-1-7-1-7 1-10 4-3 7-3 11-3Z" fill="none" transform="translate(506,130)"/>
<path data-fill-layer-id="vtracer-fill-3-2aafe5" d="M0 0c1 0 3 0 4 0 2 7 5 13 7 20-1 0-3-1-4-1 0-2-1-3-1-5-3 0-5 1-8 1 0 1 0 1-2 5-1 0-2 0-3 0 2-7 4-13 7-20Z" fill="#2aafe5" transform="translate(520,202)" />
<path d="M0 0c1 0 1 0 3 1 3 4 3 7 3 13-4 0-9 0-14 0 1-13 1-13 8-14Z" fill="none" transform="translate(632.5625,110.5)"/>
<path d="M0 0c3 1 3 1 5 2 2 4 1 7 1 12-4 0-9 0-13 0 0-5 0-7 2-11 2-2 2-2 5-3Z" fill="none" transform="translate(761.0625,110.375)"/>
<path data-fill-layer-id="vtracer-fill-3-2aafe5" d="M0 0c1 0 2 0 3 0 0 1 0 2 0 3 0 2 0 3 0 4 1 2 1 3 1 5 0 3 0 3 1 4 3 0 3 0 5 0 2-2 1-6 2-9 0-1 0-2 0-4 0-1 0-2 0-3 1 0 3 0 4 0 0 2 0 4 0 7 0 1 0 2 0 3 0 5-1 6-4 9-3 1-5 1-8 1-2-1-2-1-4-4 0-4 0-4 0-8 0-2 0-3 0-5 0-1 0-2 0-3Z" fill="#2aafe5" transform="translate(684,202)" />
<path d="M0 0c1 0 2 1 3 1 2 4 2 7 2 12-4 0-8 0-13 0 0-4 0-7 2-11 2-2 2-2 6-2Z" fill="none" transform="translate(991.75,111.1875)"/>
<path data-fill-layer-id="vtracer-fill-4-f0b73f" d="M0 0c2 0 3 0 5 1-1 2-3 4-4 6 0 0-1 1-1 2-2 2-4 5-6 7-4 0-4 0-8 0 2-8 5-16 14-16Z" fill="#F0B73F" transform="translate(832.875,79.4375)" />
<path d="M0 0c3 1 3 1 5 2 2 4 1 7 0 11-3 2-3 2-6 1-3 0-3 0-5-3 0-4 0-6 1-9 2-1 2-1 5-2Z" fill="none" transform="translate(841,204.5)"/>
<path d="M0 0c3 1 3 1 5 2 1 3 1 5 1 9-1 2-1 2-3 4-2 0-2 0-5 0-3-4-4-5-4-9 1-4 2-5 6-6Z" fill="none" transform="translate(934,204.4375)"/>
<path d="M0 0c2 0 5 1 7 1 2 4 1 7 1 11-1 1-1 1-2 2-3 0-3 0-7-1-2-3-2-5-2-9 1-2 1-2 3-4Z" fill="none" transform="translate(664,205)"/>
<path data-fill-layer-id="vtracer-fill-2-024e97" d="M0 0c1 0 1 0 2 0 0 1 0 2 0 3 2 7 6 11 11 16 0 0 0 0 3 3 1 1 2 2 3 3 1 1 1 1 4 4 5 5 11 11 17 16 2 2 4 4 6 5 0 1 1 2 2 3 1 1 1 1 2 2-3 0-3 0-6-3-1-1-2-2-4-4-1-1-2-2-4-3 0-1-1-2-1-2-2-2-4-4-6-6-5-4-10-9-14-13-3-3-3-3-5-4 0-1 0-1 0-2-1-1-3-1-4-2-1-1-2-2-3-3 0-1 0-1 0-2-1 0-2-1-3-1 0-3-1-6-1-9 0 0 1-1 1-1Z" fill="#024e97" transform="translate(122,95)" />
<path d="M0 0c2 0 5 0 7 0 3 3 3 3 3 7 0 4 0 4-2 6-2 1-2 1-8 1 0-5 0-9 0-14Z" fill="none" transform="translate(495,205)"/>
<path d="M0 0c7 0 7 0 9 2 1 3 1 5 1 8-2 2-2 2-4 4-2 0-4 0-6 0 0-5 0-9 0-14Z" fill="none" transform="translate(711,205)"/>
<path data-fill-layer-id="vtracer-fill-3-2aafe5" d="M0 0c1 0 2 0 3 0 0 1 1 2 1 3 0 1 1 2 1 3 0 0 0 0 1 3 1 3 1 3 3 4 0-1 0-2 1-2 0-1 0-2 0-3 1-1 1-2 1-3 1-3 1-3 2-5 1 0 2 0 3 0-1 7-3 13-6 20-1 0-3 0-4 0-1-3-2-6-3-8 0-1-1-2-1-3-2-6-2-6-2-9Z" fill="#2AAFE5" transform="translate(855,202)" />
<path data-fill-layer-id="vtracer-fill-3-2aafe5" d="M0 0c1 0 1 1 2 1 0 1 0 2 0 3-1 0-3 0-4 0-2 0-3 0-5 0-2 3-2 5-2 9 1 1 2 2 3 3 4 0 4 0 8-1 0 1 1 2 1 3-4 2-6 3-10 2-3-2-5-3-6-6 0-4-1-7 2-11 3-3 6-3 11-3Z" fill="#2AAFE5" transform="translate(631,202)" />
<path data-fill-layer-id="vtracer-fill-3-2aafe5" d="M0 0c5 0 10 0 15 0 0 1-1 2-1 3-2 0-3 0-5 0 0 6 0 11 0 17-1 0-3 0-4 0 0-2 0-5 0-7 0-2 0-3 0-5 0-3 0-3 1-5-2 0-3 0-5 0 0-1-1-2-1-3Z" fill="#2aafe5" transform="translate(895,202)" />
<path d="M0 0c-8 7-16 14-24 21 2-4 3-5 6-8 1-1 2-2 2-2 1-1 1-1 2-2-1 1-2 2-3 3-4 3-4 3-7 3 2-2 4-4 6-6 1-1 2-2 3-3 5-5 8-8 15-6Z" fill="none" transform="translate(261,151)"/>
<path data-fill-layer-id="vtracer-fill-2-024e97" d="M0 0c0 0 1 0 1 0 0 7 0 15 0 22-1 0-2 1-3 1-1 0-1-1-2-1-2-6-1-12 0-18 1 0 3-1 4-1 0-1 0-2 0-3Z" fill="#024E97" transform="translate(157,239)" />
<path d="M0 0c4 2 6 3 8 6 1 1 1 1 3 3 1 1 2 2 3 3 1 1 2 2 3 3 3 3 6 6 9 9 2 2 4 4 7 6 5 6 10 11 15 16 0 0 0 0-1 2-1-1-1-1-2-2-5-5-11-11-16-16-2-2-4-4-6-6-3-3-6-6-9-9-1-1-2-2-3-3-1-1-2-2-3-3 0 0-1-1-2-2-2-2-2-2-4-4-1 0-1-1-2-1 0-1 0-1 0-2Z" fill="none" transform="translate(118,104)"/>
<path data-fill-layer-id="vtracer-fill-3-2aafe5" d="M0 0c5 0 9 0 14 0 0 1 0 2 0 3-2 0-4 0-6 0 0 6 0 11 0 17-1 0-2 0-3 0 0-6 0-11 0-17-2 0-3 0-5 0 0-1 0-2 0-3Z" fill="#2AAFE5" transform="translate(534,202)" />
<path data-fill-layer-id="vtracer-fill-3-2aafe5" d="M0 0c1 0 2 0 3 0 0 6 0 11 0 17 3 0 6 0 9 0 0 1 0 2 0 3-4 0-8 0-12 0 0-7 0-13 0-20Z" fill="#2AAFE5" transform="translate(641,202)" />
<path data-fill-layer-id="vtracer-fill-2-024e97" d="M0 0c1 0 2 0 3 0 0 9 0 18 0 27-1 0-2 0-3 0 0-9 0-18 0-27Z" fill="#024e97" transform="translate(169,231)" />
<path data-fill-layer-id="vtracer-fill-3-2aafe5" d="M0 0c1 0 3 0 4 0 0 7 0 13 0 20-1 0-3 0-4 0 0-7 0-13 0-20Z" fill="#2aafe5" transform="translate(775,202)" />


<path data-fill-layer-id="vtracer-fill-4-f0b73f" d="M0 0c0 1 1 1 1 2 1 0 3 0 4 0 0 3 0 5 0 8-2 0-3 1-5 1-1-4-1-7 0-11Z" fill="#F0B73F" transform="translate(232,222)" />
<path data-fill-layer-id="vtracer-fill-2-024e97" d="M0 0c4 3 7 6 10 10 3 3 7 7 10 10-3 0-3 0-5-2-1-1-1-1-2-2-1 0-2-1-3-1 0-1-1-1-1-2-2-3-3-4-6-7-3-3-3-3-3-6Z" fill="#024e97" transform="translate(138,96)" />
<path data-fill-layer-id="vtracer-fill-3-2aafe5" d="M0 0c0 0 1 0 1 0 0 5 0 10 0 15-1 0-2 1-3 1-1-1-1-1-2-2 0-3 0-3 1-6 1 0 1 0 2 0 0-1 0-2 0-3 0-4 0-4 1-5Z" fill="#2AAFE5" transform="translate(157,246)" />
<path d="M0 0c1 0 1 1 2 1-1 1-3 3-4 4 0 1-1 1-2 2-5 5-8 6-15 7 0-1 1-2 1-3 2-1 4-1 6-2 5-2 8-5 12-9Z" fill="none" transform="translate(234,114)"/>
<path data-fill-layer-id="vtracer-fill-2-024e97" d="M0 0c1 0 2 1 3 1-2 2-5 5-7 7 0-1-1-2-1-3 2-2 3-3 5-5Z" fill="#024e97" transform="translate(226,152)" />
</g></svg>