<?xml version="1.0" standalone="no"?>
<!DOCTYPE svg PUBLIC "-//W3C//DTD SVG 20010904//EN"
 "http://www.w3.org/TR/2001/REC-SVG-20010904/DTD/svg10.dtd">
<svg version="1.0" xmlns="http://www.w3.org/2000/svg"
 width="1536.000000pt" height="1024.000000pt" viewBox="0 0 1536.000000 1024.000000"
 preserveAspectRatio="xMidYMid meet">

<g transform="translate(0.000000,1024.000000) scale(0.100000,-0.100000)"
fill="#000000" stroke="none">
<path d="M2705 6059 c-106 -57 -199 -146 -230 -220 -19 -47 -19 -47 -78 -53
-80 -8 -181 -45 -252 -92 -86 -56 -85 -55 -85 -50 0 3 27 24 60 47 41 28 57
45 48 50 -12 8 -35 -1 -80 -32 -33 -24 -45 -24 -27 -2 8 10 -2 4 -22 -12 -54
-46 -128 -148 -154 -212 -13 -32 -29 -92 -36 -134 -10 -64 -10 -88 4 -165 39
-213 181 -378 387 -446 62 -21 85 -22 500 -26 l435 -3 0 -114 c0 -62 -3 -111
-7 -109 -13 8 -38 -41 -38 -77 0 -42 22 -66 67 -75 26 -5 37 -1 57 19 36 36
35 81 -3 116 -29 27 -30 31 -33 134 l-3 107 58 0 58 0 -2 169 c-1 93 -5 192
-9 220 l-7 52 -275 272 -276 272 -8 193 -9 192 -40 -21z m35 -38 c0 -30 -4
-39 -15 -37 -9 1 -15 6 -14 12 0 5 5 8 11 6 5 -1 7 2 4 7 -8 12 -47 11 -63 -2
-7 -5 -13 -7 -13 -4 0 8 72 57 82 57 5 0 8 -18 8 -39z m-690 -334 c0 -2 -17
-19 -37 -38 l-38 -34 34 38 c33 34 41 42 41 34z m690 -192 c31 -16 45 -44 35
-74 -7 -23 -80 -38 -101 -20 -19 16 -18 68 3 91 20 22 26 22 63 3z m256 -268
c110 -104 205 -197 212 -207 11 -15 12 -49 5 -162 -6 -112 -9 -131 -13 -88 -6
59 -17 52 -23 -15 -2 -22 -4 23 -5 100 l-2 140 -202 198 c-122 119 -198 200
-190 203 6 3 9 10 6 16 -19 30 32 -15 212 -185z"/>
<path d="M2802 5898 l-2 -187 28 -21 c15 -12 145 -139 290 -282 l263 -261 -1
-209 c-1 -116 -6 -210 -11 -213 -5 -4 -9 13 -10 37 l-1 43 -9 -35 c-5 -19 -12
-157 -15 -306 -7 -265 -7 -272 13 -282 19 -11 20 -8 24 56 6 103 2 403 -6 440
l-7 32 65 0 65 0 -5 271 -6 271 -249 247 -249 246 -5 135 c-6 139 -14 189 -14
86 0 -48 -3 -57 -15 -52 -8 3 -15 0 -15 -6 0 -7 -4 -7 -13 1 -8 6 -17 8 -20 4
-4 -3 -7 -1 -7 6 0 8 -7 11 -15 7 -8 -3 -15 -1 -15 5 0 6 -3 8 -8 5 -4 -2 -15
1 -24 8 -12 9 -18 31 -21 77 -2 35 -4 -20 -5 -123z"/>
<path d="M3021 5906 l-1 -128 48 -52 c26 -28 143 -144 261 -256 l213 -205 -4
-277 -4 -278 56 0 55 0 -4 -155 c-3 -129 -1 -157 12 -170 19 -19 31 -19 46 -1
8 10 9 16 1 21 -6 3 -8 11 -5 16 4 5 2 9 -2 9 -5 0 -8 12 -7 28 1 15 2 78 3
140 l1 112 45 0 45 0 1 -92 c1 -51 0 -103 -1 -115 -1 -13 3 -23 9 -23 6 0 11
-17 11 -37 0 -36 12 -40 16 -5 6 43 14 123 19 195 l7 77 55 0 56 0 -7 240 -6
240 138 132 c222 214 355 348 345 348 -5 0 -24 -15 -42 -34 -18 -18 -43 -34
-57 -35 -59 -3 -84 0 -84 12 0 5 -7 7 -15 3 -15 -5 -22 9 -7 16 4 2 34 32 67
68 33 35 -1 8 -75 -62 -110 -102 -136 -131 -138 -156 -3 -33 -42 -72 -71 -72
-31 0 -61 30 -61 60 0 34 44 74 74 66 14 -4 47 23 130 106 84 84 94 96 40 49
-67 -58 -94 -73 -94 -52 0 5 -13 9 -29 9 -15 -1 -33 2 -39 5 -5 4 -13 0 -16
-9 -6 -14 -9 -15 -29 -2 -12 8 -34 14 -49 14 -14 -1 -25 1 -22 5 2 4 -10 12
-26 18 -26 9 -30 15 -30 49 0 44 -3 49 -90 127 l-65 58 73 -72 73 -73 -3 -441
c-2 -385 -10 -670 -16 -584 -4 52 -22 16 -24 -46 -4 -134 -15 338 -17 683 l-1
365 -93 84 -92 84 83 -84 c91 -94 107 -133 42 -109 -3 1 -13 1 -24 0 -11 -1
-15 3 -12 9 4 6 -1 11 -11 11 -11 0 -24 5 -31 12 -9 9 -12 9 -13 -2 0 -8 -4
-5 -10 8 -6 16 -15 22 -31 20 -15 -2 -22 2 -20 10 1 8 -1 11 -6 8 -5 -3 -41
26 -81 64 -120 115 -76 61 72 -88 l137 -139 -1 -454 c-1 -322 -4 -443 -11
-416 -13 49 -26 47 -31 -5 -2 -24 -4 25 -5 108 -1 83 -5 288 -8 455 l-7 304
-136 138 c-132 134 -136 139 -142 190 l-7 52 1 -65 c0 -47 5 -69 16 -78 14
-10 13 -11 -4 -5 -11 4 -25 14 -31 22 -10 13 -14 13 -30 1 -10 -8 -15 -10 -11
-3 5 8 -2 13 -20 15 -26 3 -28 7 -33 58 l-5 55 -6 -48 c-12 -87 1 -113 101
-210 59 -58 97 -87 106 -83 9 3 28 -1 43 -9 67 -34 48 -115 -27 -115 -34 0
-62 29 -62 66 0 12 -3 24 -7 26 -5 2 -52 49 -107 105 l-99 101 -7 83 -7 84 -2
-65 c-2 -47 -5 -59 -11 -45 -5 11 -9 14 -9 7 -1 -7 -5 -10 -11 -7 -6 4 -7 -1
-3 -12 6 -16 5 -17 -13 -3 -40 31 -64 62 -65 83 -1 12 -5 33 -9 47 -5 16 -8
-24 -9 -104z m806 -1253 c-3 -10 -5 -2 -5 17 0 19 2 27 5 18 2 -10 2 -26 0
-35z"/>
<path d="M4025 5738 l-50 -53 53 50 c48 46 57 55 49 55 -1 0 -25 -24 -52 -52z"/>
<path d="M2150 5770 c-9 -6 -10 -10 -3 -10 6 0 15 5 18 10 8 12 4 12 -15 0z"/>
<path d="M3965 5759 c-4 -6 -5 -12 -2 -15 2 -3 7 2 10 11 7 17 1 20 -8 4z"/>
<path d="M4232 5412 l-232 -227 0 -171 c0 -213 -7 -294 -26 -287 -11 4 -14
-11 -13 -73 0 -44 4 -97 8 -119 8 -37 9 -38 11 -10 1 17 4 39 6 50 2 11 6 46
10 78 l7 57 58 0 59 0 -3 181 -2 180 90 87 c50 48 155 144 234 212 78 69 157
138 175 153 l31 29 -32 -21 c-17 -12 -36 -21 -41 -21 -5 0 -12 -7 -16 -15 -3
-8 -10 -15 -16 -15 -6 0 -9 4 -6 9 4 5 -5 8 -19 7 -14 -2 -32 5 -41 15 -10 11
-24 19 -33 19 -9 0 -23 5 -31 10 -12 8 -7 17 30 55 24 25 40 45 35 44 -6 0
-115 -102 -243 -227z"/>
<path d="M4659 5486 c-73 -50 -279 -222 -425 -355 l-61 -56 -5 -182 -5 -183
59 0 60 0 -2 138 c-1 75 -2 144 -1 153 0 9 34 48 74 85 77 73 206 204 237 242
24 28 59 28 94 1 67 -53 -1 -154 -78 -114 -32 17 -9 34 -204 -147 l-72 -68 0
-145 0 -145 329 0 c181 0 364 5 407 11 133 18 249 74 357 171 36 32 50 57 25
42 -8 -4 -10 -3 -5 2 5 5 14 9 20 9 12 0 97 132 97 150 0 5 -16 -18 -36 -52
-19 -34 -39 -65 -45 -69 -6 -3 1 12 15 35 25 39 34 107 12 94 -5 -4 -6 3 -2
18 19 64 25 97 25 134 -1 35 -2 37 -9 15 -4 -14 -8 -18 -9 -10 -1 10 -4 11
-13 2 -7 -7 -17 -8 -29 -1 -10 5 -46 12 -81 14 -94 8 -103 9 -108 17 -3 3 -30
-5 -60 -19 -64 -30 -137 -35 -155 -10 -6 8 -23 19 -38 22 -15 4 -32 15 -37 24
-9 15 -9 15 -10 -1 0 -11 -5 -15 -15 -12 -8 4 -12 10 -9 15 3 5 -6 9 -20 9
-14 0 -26 5 -26 11 0 6 -13 8 -30 5 -16 -2 -30 0 -30 5 0 6 -4 8 -9 4 -6 -3
-14 2 -19 12 -9 14 -13 15 -26 4 -9 -8 -16 -9 -16 -3 0 6 -13 13 -30 17 -16 4
-30 11 -30 16 0 6 -4 7 -10 4 -5 -3 -10 -2 -10 4 0 5 -10 13 -22 17 -13 4 -26
12 -30 18 -5 6 -8 2 -8 -11 0 -27 -6 -29 -26 -9 -12 12 -7 19 34 49 26 19 54
36 62 39 7 2 10 7 5 10 -6 3 -31 -8 -56 -26z"/>
<path d="M5591 5444 c0 -11 3 -14 6 -6 3 7 2 16 -1 19 -3 4 -6 -2 -5 -13z"/>
<path d="M5587 5240 c-4 -30 -9 -66 -12 -80 -3 -14 2 -5 10 20 9 25 14 61 13
80 -3 30 -4 27 -11 -20z"/>
<path d="M3507 4780 c-13 -39 -21 -678 -8 -660 9 13 11 13 11 -2 0 -9 -5 -18
-11 -20 -6 -2 -9 -14 -7 -26 2 -13 7 -19 14 -14 20 12 31 504 16 672 -5 59 -9
70 -15 50z"/>
<path d="M4136 4723 c-9 -28 -5 -152 5 -158 9 -6 16 139 8 163 -5 14 -7 14
-13 -5z"/>
<path d="M3640 4358 c0 -5 9 -8 20 -8 11 0 23 0 27 -1 4 0 9 3 10 8 2 4 -10 8
-27 8 -16 0 -30 -3 -30 -7z"/>
</g>
</svg>
